<svg width="42" height="42" viewBox="0 0 42 42" fill="none" xmlns="http://www.w3.org/2000/svg">
<rect width="42" height="42" fill="#BBBBBB"/>
<g id=" Dashboard 4" clipPath="url(#clip0_0_1)">
<rect width="1920" height="1589" transform="translate(-216 -222)" fill="#F5F5F5"/>
<g id="Frame 1000001915">
<g id="Frame 1000001951">
<g id="Frame 1000001942">
<g id="Frame 1000001934">
<g id="Frame 1000001932">
<g id="Frame 1000001897">
<rect x="-92" y="-62" width="400" height="330.6" rx="20" fill="white"/>
<g id="Frame 1000001904">
<rect id="Rectangle 34624297" x="-14" y="-12" width="70.9254" height="66" rx="21" fill="#FFEFED"/>
<g id="Group 1171275093">
<path id="Vector" d="M21.0053 10.8408C19.8825 10.8408 18.9727 11.7513 18.9727 12.8735V25.7958C18.9727 26.918 19.8825 27.8285 21.0053 27.8285C22.1281 27.8285 23.0379 26.918 23.0379 25.7958V12.8735C23.0379 11.7513 22.1282 10.8408 21.0053 10.8408ZM21.0053 29.6917C19.8825 29.6917 18.9727 30.6022 18.9727 31.7244V33.1999C18.9727 34.3221 19.8825 35.2325 21.0053 35.2325C22.1281 35.2325 23.0379 34.3221 23.0379 33.1999V31.7244C23.0379 30.6022 22.1282 29.6917 21.0053 29.6917Z" fill="#FF7676"/>
<path id="Vector_2" d="M41.4769 34.7574L25.4818 2.76578C24.6282 1.06 22.9132 0 21.0049 0C19.0973 0 17.3823 1.06 16.5287 2.76578L0.532923 34.7574C-0.248506 36.3203 -0.166455 38.1398 0.751933 39.6259C1.67099 41.112 3.2623 42 5.00976 42H37.0001C38.7482 42 40.3401 41.112 41.2586 39.6259C42.177 38.1398 42.2577 36.3189 41.4769 34.7574ZM37.7994 37.4888C37.6975 37.6555 37.4566 37.9347 37.0001 37.9347H5.00976C4.55387 37.9347 4.31303 37.6555 4.21047 37.4888C4.10726 37.3233 3.96566 36.9832 4.16946 36.5757L20.1646 4.58403C20.3988 4.11557 20.8302 4.06529 21.0049 4.06529C21.1796 4.06529 21.611 4.11557 21.8452 4.58403L37.8404 36.5757C38.0442 36.9832 37.9026 37.3233 37.7994 37.4888Z" fill="#FF7676"/>
</g>
</g>
</g>
</g>
</g>
</g>
</g>
</g>
</g>
<defs>
<clipPath id="clip0_0_1">
<rect width="1920" height="1589" fill="white" transform="translate(-216 -222)"/>
</clipPath>
</defs>
</svg>
