<svg width="201" height="201" viewBox="0 0 201 201" fill="none" xmlns="http://www.w3.org/2000/svg">
<g clipPath="url(#clip0_21_17588)">
<mask id="mask0_21_17588" style="mask-type:alpha" maskUnits="userSpaceOnUse" x="0" y="0" width="201" height="201">
<path d="M201 0H0V201H201V0Z" fill="white"/>
</mask>
<g mask="url(#mask0_21_17588)">
<circle cx="100.5" cy="100.5" r="96.3125" fill="#D4D2F3" stroke="#E6E6E6" strokeWidth="1.5"/>
<path d="M114.134 133.204V151.797C114.134 155.962 112.48 159.956 109.535 162.901C106.59 165.846 102.596 167.5 98.4309 167.5C94.2662 167.5 90.272 165.846 87.3271 162.901C84.3822 159.956 82.7278 155.962 82.7278 151.797V133.204C76.4326 130.79 70.7751 126.964 66.1907 122.02C61.6062 117.076 58.217 111.147 56.2837 104.688H56.0325C52.4161 104.694 48.9349 103.314 46.3054 100.831C43.6758 98.3481 42.0981 94.9518 41.8969 91.341C41.6957 87.7302 42.8863 84.1797 45.2237 81.4202C47.5612 78.6607 50.8675 76.9022 54.4622 76.5067V73.2812C54.4622 48.9979 74.1476 29.3125 98.4309 29.3125C122.714 29.3125 142.4 48.9979 142.4 73.2812V76.5067C146.022 76.8973 149.354 78.6718 151.699 81.4598C154.045 84.2478 155.223 87.8339 154.988 91.4696C154.753 95.1054 153.123 98.5099 150.438 100.973C147.753 103.436 144.221 104.766 140.578 104.688C138.645 111.147 135.256 117.077 130.672 122.022C126.087 126.966 120.43 130.793 114.134 133.208V133.204Z" fill="#92594B"/>
<mask id="mask1_21_17588" style="mask-type:alpha" maskUnits="userSpaceOnUse" x="41" y="29" width="115" height="139">
<path d="M114.134 133.204V151.797C114.134 155.962 112.48 159.956 109.535 162.901C106.59 165.846 102.596 167.5 98.4309 167.5C94.2662 167.5 90.272 165.846 87.3271 162.901C84.3822 159.956 82.7278 155.962 82.7278 151.797V133.204C76.4326 130.79 70.7751 126.964 66.1907 122.02C61.6062 117.076 58.217 111.147 56.2837 104.688H56.0325C52.4161 104.694 48.9349 103.314 46.3054 100.831C43.6758 98.3481 42.0981 94.9518 41.8969 91.341C41.6957 87.7302 42.8863 84.1797 45.2237 81.4202C47.5612 78.6607 50.8675 76.9022 54.4622 76.5067V73.2812C54.4622 48.9979 74.1476 29.3125 98.4309 29.3125C122.714 29.3125 142.4 48.9979 142.4 73.2812V76.5067C146.022 76.8973 149.354 78.6718 151.699 81.4598C154.045 84.2478 155.223 87.8339 154.988 91.4696C154.753 95.1054 153.123 98.5099 150.438 100.973C147.753 103.436 144.221 104.766 140.578 104.688C138.645 111.147 135.256 117.077 130.672 122.022C126.087 126.966 120.43 130.793 114.134 133.208V133.204Z" fill="white"/>
</mask>
<g mask="url(#mask1_21_17588)">
<g style="mix-blend-mode:overlay" opacity="0.364">
<path d="M98.4309 29.3125C122.714 29.3125 142.4 48.9979 142.4 73.2812V92.125C142.4 116.408 122.714 136.094 98.4309 136.094C74.1476 136.094 54.4622 116.408 54.4622 92.125V73.2812C54.4622 48.9979 74.1476 29.3125 98.4309 29.3125Z" fill="white"/>
</g>
<path d="M79.5872 82.7031C80.8366 82.7031 82.0348 82.2068 82.9183 81.3233C83.8018 80.4399 84.2981 79.2416 84.2981 77.9922C84.2981 76.7428 83.8018 75.5445 82.9183 74.6611C82.0348 73.7776 80.8366 73.2812 79.5872 73.2812C78.3377 73.2812 77.1395 73.7776 76.256 74.6611C75.3725 75.5445 74.8762 76.7428 74.8762 77.9922C74.8762 79.2416 75.3725 80.4399 76.256 81.3233C77.1395 82.2068 78.3377 82.7031 79.5872 82.7031ZM117.275 82.7031C118.524 82.7031 119.722 82.2068 120.606 81.3233C121.489 80.4399 121.986 79.2416 121.986 77.9922C121.986 76.7428 121.489 75.5445 120.606 74.6611C119.722 73.7776 118.524 73.2812 117.275 73.2812C116.025 73.2812 114.827 73.7776 113.944 74.6611C113.06 75.5445 112.564 76.7428 112.564 77.9922C112.564 79.2416 113.06 80.4399 113.944 81.3233C114.827 82.2068 116.025 82.7031 117.275 82.7031Z" fill="#1B0640"/>
<g opacity="0.801">
<path d="M89.009 70.1406H70.1653V88.9844H89.009V70.1406ZM126.697 70.1406H107.853V88.9844H126.697V70.1406Z" fill="#1B0640"/>
</g>
<path fillRule="evenodd" clipRule="evenodd" d="M101.572 67.1665C103.629 67.1665 105.384 66.5383 107.366 65.8254C109.922 64.9083 112.846 63.8594 117.275 63.8594C122.51 63.8594 127.742 64.9586 132.978 67.1665L136.118 68.8184V73.7775L132.978 75.4294V85.3475C132.978 90.8248 128.76 95.2656 123.556 95.2656H110.993C105.789 95.2656 101.572 90.8248 101.572 85.3475V73.7775H95.2903V85.3475C95.2903 90.8248 91.0724 95.2656 85.8684 95.2656H73.3059C68.1019 95.2656 63.884 90.8248 63.884 85.3475V75.4294L60.7434 73.7775V68.8184L63.884 67.1665C69.1195 64.9586 74.3517 63.8594 79.5872 63.8594C84.0123 63.8594 86.9394 64.9083 89.4958 65.8254C91.4744 66.5352 93.2332 67.1665 95.2903 67.1665H101.572ZM86.6316 71.7832C83.9809 70.8567 82.1562 70.4735 79.5872 70.4735C76.4622 70.4735 73.3279 70.9446 70.1653 71.8868V85.3507C70.1653 87.1754 71.5723 88.6578 73.3059 88.6578H85.8684C87.602 88.6578 89.009 87.1754 89.009 85.3507V72.6249C88.3526 72.405 87.6052 72.1381 86.6316 71.7863V71.7832ZM107.853 72.628C108.509 72.4082 109.257 72.1412 110.233 71.7895C112.881 70.8567 114.706 70.4735 117.275 70.4735C120.4 70.4735 123.534 70.9446 126.697 71.8868V85.3507C126.697 87.1754 125.29 88.6578 123.556 88.6578H110.993C109.26 88.6578 107.853 87.1754 107.853 85.3507V72.6249V72.628Z" fill="#1B0640"/>
<path fillRule="evenodd" clipRule="evenodd" d="M142.4 76.4219C136.725 70.1155 132.569 62.2891 129.931 52.9488C124.058 60.1189 115.651 64.2771 104.712 65.4297C86.396 67.358 70.74 64.4027 57.7504 56.5668C55.5719 61.8697 54.4548 67.5484 54.4622 73.2813V76.5067C52.2144 76.7543 50.0597 77.5408 48.1809 78.7993V74.8516C48.1809 46.231 70.6772 23.0312 98.4309 23.0312C126.185 23.0312 148.681 46.231 148.681 74.8516V78.8025C146.802 77.5439 144.647 76.7575 142.4 76.5098V76.4219ZM148.681 102.307V172.289H114.134V133.204C120.43 130.789 126.088 126.962 130.672 122.017C135.257 117.072 138.646 111.142 140.578 104.681L140.829 104.684C143.734 104.684 146.435 103.805 148.681 102.304V102.307ZM48.1809 172.425H83.1361C83.1361 172.425 82.888 157.767 82.7278 150.368V133.208C76.4319 130.793 70.774 126.965 66.1895 122.02C61.605 117.076 58.2161 111.145 56.2837 104.684L56.0325 104.688C53.1274 104.688 50.4265 103.808 48.1809 102.307V172.425Z" fill="#362C47"/>
<mask id="mask2_21_17588" style="mask-type:alpha" maskUnits="userSpaceOnUse" x="48" y="23" width="101" height="150">
<path fillRule="evenodd" clipRule="evenodd" d="M142.4 76.4219C136.725 70.1155 132.569 62.2891 129.931 52.9488C124.058 60.1189 115.651 64.2771 104.712 65.4297C86.396 67.358 70.74 64.4027 57.7504 56.5668C55.5719 61.8697 54.4548 67.5484 54.4622 73.2813V76.5067C52.2144 76.7543 50.0597 77.5408 48.1809 78.7993V74.8516C48.1809 46.231 70.6772 23.0312 98.4309 23.0312C126.185 23.0312 148.681 46.231 148.681 74.8516V78.8025C146.802 77.5439 144.647 76.7575 142.4 76.5098V76.4219ZM148.681 102.307V172.289H114.134V133.204C120.43 130.789 126.088 126.962 130.672 122.017C135.257 117.072 138.646 111.142 140.578 104.681L140.829 104.684C143.734 104.684 146.435 103.805 148.681 102.304V102.307ZM48.1809 172.425H83.1361C83.1361 172.425 82.888 157.767 82.7278 150.368V133.208C76.4319 130.793 70.774 126.965 66.1895 122.02C61.605 117.076 58.2161 111.145 56.2837 104.684L56.0325 104.688C53.1274 104.688 50.4265 103.808 48.1809 102.307V172.425Z" fill="#362C47"/>
</mask>
<g mask="url(#mask2_21_17588)">
<g style="mix-blend-mode:overlay" opacity="0.258">
<path d="M48.1809 23.0312H148.681V79.5625H48.1809V23.0312Z" fill="white"/>
</g>
</g>
<path d="M82.7278 148.656V150.132C82.7278 154.297 84.3822 158.291 87.3271 161.236C90.272 164.181 94.2662 165.835 98.4309 165.835C102.596 165.835 106.59 164.181 109.535 161.236C112.48 158.291 114.134 154.297 114.134 150.132V148.656C136.316 153.439 154.742 169.808 164.384 189.484H32.4778C42.1195 169.808 60.5455 153.439 82.7278 148.656Z" fill="#6DBB58"/>
<path d="M85.881 114.524C85.5127 114.723 85.1879 114.994 84.9257 115.32C84.6635 115.647 84.4692 116.022 84.3543 116.425C84.2394 116.827 84.2061 117.249 84.2564 117.664C84.3068 118.08 84.4397 118.482 84.6474 118.845C84.8552 119.209 85.1335 119.527 85.466 119.781C85.7986 120.036 86.1786 120.221 86.5838 120.326C86.989 120.432 87.4112 120.455 87.8256 120.395C88.2399 120.335 88.638 120.192 88.9965 119.976C92.2 118.145 95.3343 117.25 98.431 117.25C101.528 117.25 104.659 118.145 107.865 119.976C108.224 120.192 108.622 120.335 109.036 120.395C109.451 120.455 109.873 120.432 110.278 120.326C110.683 120.221 111.063 120.036 111.396 119.781C111.728 119.527 112.007 119.209 112.215 118.845C112.422 118.482 112.555 118.08 112.606 117.664C112.656 117.249 112.623 116.827 112.508 116.425C112.393 116.022 112.198 115.647 111.936 115.32C111.674 114.994 111.349 114.723 110.981 114.524C106.86 112.168 102.665 110.969 98.431 110.969C94.1974 110.969 90.0015 112.168 85.881 114.524Z" fill="#1B0640"/>
<g style="mix-blend-mode:overlay" opacity="0.36">
<path d="M89.9167 96.01C89.8142 95.7153 89.7712 95.4033 89.7903 95.0919C89.8094 94.7806 89.8901 94.4761 90.0278 94.1962C90.1656 93.9163 90.3575 93.6665 90.5925 93.4614C90.8276 93.2563 91.101 93.0999 91.397 93.0013C91.6929 92.9027 92.0055 92.8639 92.3166 92.8871C92.6277 92.9103 92.9311 92.9951 93.2091 93.1365C93.4872 93.2779 93.7344 93.4731 93.9364 93.7109C94.1384 93.9486 94.2911 94.2241 94.3858 94.5213C95.1175 96.7166 96.3235 97.6211 98.4309 97.6211C100.538 97.6211 101.747 96.7166 102.479 94.5213C102.568 94.2171 102.717 93.934 102.918 93.6888C103.118 93.4436 103.367 93.2415 103.647 93.0944C103.928 92.9474 104.235 92.8585 104.551 92.833C104.867 92.8075 105.185 92.8461 105.485 92.9463C105.786 93.0464 106.063 93.2063 106.301 93.4161C106.538 93.626 106.731 93.8816 106.867 94.1676C107.003 94.4537 107.08 94.7642 107.094 95.0808C107.107 95.3974 107.057 95.7134 106.945 96.01C105.585 100.096 102.608 102.332 98.4309 102.332C94.2539 102.332 91.2766 100.096 89.9167 96.01Z" fill="black"/>
</g>
<path fillRule="evenodd" clipRule="evenodd" d="M84.653 103.661C79.6343 104.989 76.4465 109.681 76.4465 114.869V129.514C76.4465 132.645 77.998 135.588 80.7712 137.045C85.1366 139.338 92.1842 142.375 98.924 142.375C105.645 142.375 112.303 139.351 116.386 137.055C118.999 135.588 120.415 132.755 120.415 129.762V114.869C120.415 109.678 117.228 104.989 112.209 103.661C108.082 102.571 103.001 101.547 98.4309 101.547C93.8613 101.547 88.7798 102.571 84.653 103.661ZM85.5732 108.089C83.0544 108.786 81.4401 111.126 81.4401 113.736V122.121C81.4401 125.466 83.202 128.581 86.2767 129.9C89.6811 131.361 94.3952 132.953 98.7575 132.953C103.107 132.953 107.699 131.37 111.003 129.913C114.005 128.588 115.704 125.516 115.704 122.234V113.786C115.704 111.148 114.059 108.792 111.518 108.108C108.148 107.197 103.208 106.135 98.4309 106.135C93.6823 106.135 88.8583 107.184 85.5732 108.092V108.089Z" fill="#362C47"/>
</g>
</g>
</g>
<defs>
<clipPath id="clip0_21_17588">
<rect width="201" height="201" fill="white"/>
</clipPath>
</defs>
</svg>
