<svg width="115" height="25" viewBox="0 0 115 25" fill="none" xmlns="http://www.w3.org/2000/svg">
<g clipPath="url(#clip0_7_5064)">
<path d="M21.1406 8.01562V19.5C21.1406 21.9555 19.143 23.9531 16.6875 23.9531H7.3125C4.85705 23.9531 2.85938 21.9555 2.85938 19.5V8.01562C2.85938 5.56017 4.85705 3.5625 7.3125 3.5625H16.6875C19.143 3.5625 21.1406 5.56017 21.1406 8.01562Z" fill="url(#paint0_linear_7_5064)"/>
<path d="M24 10.125V12.9375C24 13.8436 23.2655 14.5781 22.3594 14.5781H21.1406V8.48438H22.3594C23.2655 8.48438 24 9.21891 24 10.125ZM2.85938 8.48438H1.64062C0.734531 8.48438 0 9.21891 0 10.125V12.9375C0 13.8436 0.734531 14.5781 1.64062 14.5781H2.85938V8.48438ZM17.8594 11.0625C17.8594 9.89939 16.9131 8.95312 15.75 8.95312C14.5869 8.95312 13.6406 9.89939 13.6406 11.0625C13.6406 12.2256 14.5869 13.1719 15.75 13.1719C16.9131 13.1719 17.8594 12.2256 17.8594 11.0625ZM10.3594 11.0625C10.3594 9.89939 9.41311 8.95312 8.25 8.95312C7.08689 8.95312 6.14062 9.89939 6.14062 11.0625C6.14062 12.2256 7.08689 13.1719 8.25 13.1719C9.41311 13.1719 10.3594 12.2256 10.3594 11.0625ZM12 0.046875C10.0615 0.046875 8.48438 1.62398 8.48438 3.5625V4.96875C8.48438 5.35706 8.79919 5.67188 9.1875 5.67188H14.8125C15.2008 5.67188 15.5156 5.35706 15.5156 4.96875V3.5625C15.5156 1.62398 13.9385 0.046875 12 0.046875ZM10.6719 20.2031H13.3282V15.0469H10.6719V20.2031ZM9.26564 15.0469H9.1875C7.76363 15.0469 6.60938 16.2011 6.60938 17.625C6.60938 19.0489 7.76363 20.2031 9.1875 20.2031H9.26564V15.0469ZM14.8125 15.0469H14.7344V20.2031H14.8125C16.2364 20.2031 17.3906 19.0489 17.3906 17.625C17.3906 16.2011 16.2364 15.0469 14.8125 15.0469Z" fill="url(#paint1_linear_7_5064)"/>
</g>
<path d="M40.55 21.19C39.3233 21.19 38.2333 21.0467 37.28 20.76C36.3267 20.4667 35.5167 20.0167 34.85 19.41C34.19 18.7967 33.69 18.0133 33.35 17.06C33.01 16.1067 32.84 14.9633 32.84 13.63C32.84 11.9367 33.1467 10.5267 33.76 9.4C34.3733 8.26667 35.2667 7.42 36.44 6.86C37.6133 6.29333 39.0367 6.01 40.71 6.01C41.2767 6.01 41.8233 6.04 42.35 6.1C42.8767 6.15333 43.39 6.24 43.89 6.36V9.04C43.4233 8.92667 42.9467 8.84 42.46 8.78C41.98 8.72 41.4833 8.69 40.97 8.69C39.9033 8.69 39.02 8.85667 38.32 9.19C37.6267 9.51667 37.1067 10.04 36.76 10.76C36.4133 11.48 36.24 12.4233 36.24 13.59C36.24 14.7967 36.41 15.76 36.75 16.48C37.0967 17.1933 37.61 17.71 38.29 18.03C38.9767 18.35 39.8333 18.51 40.86 18.51C41.3667 18.51 41.87 18.47 42.37 18.39C42.87 18.3033 43.3767 18.1867 43.89 18.04V20.71C43.4167 20.8567 42.89 20.9733 42.31 21.06C41.7367 21.1467 41.15 21.19 40.55 21.19ZM45.6119 21V4.84H48.7919V11.16H48.9519C49.3252 10.7467 49.7652 10.4333 50.2719 10.22C50.7785 10 51.3452 9.89 51.9719 9.89C52.6385 9.89 53.2419 10.03 53.7819 10.31C54.3219 10.59 54.7485 11.0467 55.0619 11.68C55.3819 12.3067 55.5419 13.14 55.5419 14.18V21H52.3519V14.39C52.3519 13.7233 52.2119 13.2667 51.9319 13.02C51.6585 12.7667 51.2852 12.64 50.8119 12.64C50.5719 12.64 50.3285 12.6733 50.0819 12.74C49.8352 12.8 49.5985 12.8967 49.3719 13.03C49.1519 13.1633 48.9585 13.33 48.7919 13.53V21H45.6119ZM60.8284 21.2C59.7084 21.2 58.8351 20.91 58.2084 20.33C57.5884 19.7433 57.2784 18.98 57.2784 18.04C57.2784 17.0067 57.6351 16.2 58.3484 15.62C59.0684 15.04 60.2284 14.6967 61.8284 14.59L64.1284 14.4L64.4684 16.16L62.1484 16.35C61.5351 16.3967 61.0918 16.5367 60.8184 16.77C60.5518 17.0033 60.4184 17.3233 60.4184 17.73C60.4184 18.13 60.5418 18.44 60.7884 18.66C61.0351 18.8733 61.3951 18.98 61.8684 18.98C62.1618 18.98 62.4618 18.93 62.7684 18.83C63.0751 18.7233 63.3551 18.5433 63.6084 18.29V14.29C63.6084 13.79 63.5251 13.3967 63.3584 13.11C63.1984 12.8233 62.9351 12.62 62.5684 12.5C62.2084 12.3733 61.7251 12.31 61.1184 12.31C60.6984 12.31 60.2218 12.3467 59.6884 12.42C59.1551 12.4867 58.6451 12.5967 58.1584 12.75V10.35C58.6918 10.1967 59.2751 10.0833 59.9084 10.01C60.5484 9.93 61.1418 9.89 61.6884 9.89C62.8484 9.89 63.7984 10.0333 64.5384 10.32C65.2851 10.6067 65.8351 11.0867 66.1884 11.76C66.5418 12.4267 66.7184 13.3367 66.7184 14.49V21H64.0984L63.8784 19.91H63.7284C63.4018 20.3567 62.9851 20.6833 62.4784 20.89C61.9718 21.0967 61.4218 21.2 60.8284 21.2ZM73.8803 21.2C72.5603 21.2 71.5436 20.8733 70.8303 20.22C70.1236 19.56 69.7703 18.5167 69.7703 17.09V10.06L70.3503 6.2H72.9503V16.59C72.9503 17.3433 73.0903 17.8633 73.3703 18.15C73.657 18.4367 74.117 18.58 74.7503 18.58C74.9236 18.58 75.1003 18.57 75.2803 18.55C75.467 18.5233 75.6736 18.49 75.9003 18.45V20.97C75.6136 21.03 75.2903 21.0833 74.9303 21.13C74.577 21.1767 74.227 21.2 73.8803 21.2ZM67.9903 12.57V10.06H75.8303V12.57H67.9903ZM86.7969 21.17C86.3902 21.17 85.9435 21.1567 85.4569 21.13C84.9769 21.11 84.4902 21.0767 83.9969 21.03C83.5102 20.99 83.0535 20.94 82.6269 20.88V6.53C83.0869 6.43 83.5802 6.34333 84.1069 6.27C84.6335 6.19 85.1735 6.13 85.7269 6.09C86.2869 6.04333 86.8369 6.02 87.3769 6.02C88.8435 6.02 90.0402 6.17333 90.9669 6.48C91.9002 6.78 92.5869 7.23667 93.0269 7.85C93.4669 8.45667 93.6869 9.22 93.6869 10.14C93.6869 10.6867 93.5802 11.19 93.3669 11.65C93.1602 12.1033 92.8569 12.4867 92.4569 12.8C92.0569 13.1133 91.5702 13.3267 90.9969 13.44L91.0069 13.31C91.9469 13.4433 92.6935 13.8067 93.2469 14.4C93.8069 14.9867 94.0869 15.8033 94.0869 16.85C94.0869 17.5367 93.9569 18.15 93.6969 18.69C93.4369 19.2233 93.0202 19.6767 92.4469 20.05C91.8735 20.4167 91.1202 20.6967 90.1869 20.89C89.2602 21.0767 88.1302 21.17 86.7969 21.17ZM87.6669 18.8C88.5335 18.8 89.2135 18.7233 89.7069 18.57C90.2069 18.4167 90.5602 18.1867 90.7669 17.88C90.9802 17.5733 91.0869 17.1833 91.0869 16.71C91.0869 15.9967 90.8635 15.4767 90.4169 15.15C89.9769 14.8167 89.2502 14.65 88.2369 14.65H85.4569V12.22H87.9269C88.5869 12.22 89.1135 12.15 89.5069 12.01C89.9069 11.8633 90.1935 11.65 90.3669 11.37C90.5469 11.09 90.6369 10.7367 90.6369 10.31C90.6369 9.63667 90.4235 9.15 89.9969 8.85C89.5702 8.54333 88.8335 8.39 87.7869 8.39C87.4069 8.39 87.0569 8.40667 86.7369 8.44C86.4169 8.46667 86.1035 8.50667 85.7969 8.56V18.71C86.1369 18.7433 86.4535 18.7667 86.7469 18.78C87.0402 18.7933 87.3469 18.8 87.6669 18.8ZM100.637 21.21C99.5439 21.21 98.5972 21.0033 97.7972 20.59C97.0039 20.17 96.3905 19.5433 95.9572 18.71C95.5239 17.87 95.3072 16.82 95.3072 15.56C95.3072 14.2867 95.5172 13.23 95.9372 12.39C96.3639 11.55 96.9739 10.9233 97.7672 10.51C98.5672 10.0967 99.5239 9.89 100.637 9.89C101.751 9.89 102.704 10.1 103.497 10.52C104.297 10.9333 104.907 11.56 105.327 12.4C105.754 13.2333 105.967 14.28 105.967 15.54C105.967 16.8067 105.751 17.86 105.317 18.7C104.884 19.54 104.267 20.17 103.467 20.59C102.674 21.0033 101.731 21.21 100.637 21.21ZM100.637 18.79C101.084 18.79 101.464 18.6933 101.777 18.5C102.097 18.3067 102.341 17.9767 102.507 17.51C102.674 17.0367 102.757 16.39 102.757 15.57C102.757 14.73 102.674 14.0733 102.507 13.6C102.341 13.1267 102.097 12.7933 101.777 12.6C101.464 12.4 101.084 12.3 100.637 12.3C100.191 12.3 99.8072 12.3967 99.4872 12.59C99.1739 12.7833 98.9339 13.1167 98.7672 13.59C98.6005 14.0567 98.5172 14.7033 98.5172 15.53C98.5172 16.37 98.6005 17.0267 98.7672 17.5C98.9339 17.9733 99.1739 18.3067 99.4872 18.5C99.8072 18.6933 100.191 18.79 100.637 18.79ZM112.376 21.2C111.056 21.2 110.04 20.8733 109.326 20.22C108.62 19.56 108.266 18.5167 108.266 17.09V10.06L108.846 6.2H111.446V16.59C111.446 17.3433 111.586 17.8633 111.866 18.15C112.153 18.4367 112.613 18.58 113.246 18.58C113.42 18.58 113.596 18.57 113.776 18.55C113.963 18.5233 114.17 18.49 114.396 18.45V20.97C114.11 21.03 113.786 21.0833 113.426 21.13C113.073 21.1767 112.723 21.2 112.376 21.2ZM106.486 12.57V10.06H114.326V12.57H106.486Z" fill="url(#paint2_linear_7_5064)"/>
<defs>
<linearGradient id="paint0_linear_7_5064" x1="12" y1="23.9531" x2="12" y2="3.5625" gradientUnits="userSpaceOnUse">
<stop stopColor="#5558FF"/>
<stop offset="1" stopColor="#00C0FF"/>
</linearGradient>
<linearGradient id="paint1_linear_7_5064" x1="12" y1="20.2031" x2="12" y2="0.046875" gradientUnits="userSpaceOnUse">
<stop stopColor="#ADDCFF"/>
<stop offset="0.5028" stopColor="#EAF6FF"/>
<stop offset="1" stopColor="#EAF6FF"/>
</linearGradient>
<linearGradient id="paint2_linear_7_5064" x1="32" y1="13" x2="115" y2="13" gradientUnits="userSpaceOnUse">
<stop stopColor="#204496"/>
<stop offset="1" stopColor="#5287FF"/>
</linearGradient>
<clipPath id="clip0_7_5064">
<rect width="24" height="24" fill="white"/>
</clipPath>
</defs>
</svg>
