<svg width="520" height="513" viewBox="0 0 520 513" fill="none" xmlns="http://www.w3.org/2000/svg">
<g clipPath="url(#clip0_7_5466)">
<path d="M334.089 257.173C282.74 256.681 236.276 256.243 202.595 255.922C185.792 255.847 172.186 255.773 162.747 255.73C158.066 255.741 154.431 255.751 151.909 255.751C150.69 255.773 149.76 255.783 149.087 255.794C148.456 255.805 148.125 255.826 148.125 255.847C148.125 255.869 148.446 255.89 149.087 255.912C149.76 255.922 150.69 255.954 151.909 255.976C154.421 256.008 158.066 256.051 162.747 256.115C172.196 256.168 185.792 256.243 202.595 256.328C236.276 256.35 282.751 256.382 334.1 256.414C385.427 256.414 431.902 256.478 465.551 256.724C482.375 256.841 495.992 257.002 505.399 257.184C510.102 257.269 513.757 257.365 516.237 257.461C518.717 257.558 520.01 257.654 520.01 257.739C520.01 257.836 518.706 257.91 516.226 257.985C513.746 258.06 510.091 258.113 505.388 258.156C495.982 258.242 482.364 258.263 465.54 258.21C431.892 258.113 385.417 257.707 334.1 257.184L334.089 257.173Z" fill="#EBEBEB"/>
<path d="M333.075 268.599C282.431 260.241 236.598 252.684 203.377 247.2C186.788 244.549 173.363 242.401 164.042 240.904C159.414 240.199 155.822 239.654 153.332 239.269C152.135 239.098 151.205 238.97 150.542 238.874C149.911 238.788 149.591 238.756 149.58 238.777C149.58 238.799 149.89 238.874 150.521 238.991C151.183 239.109 152.103 239.28 153.289 239.494C155.769 239.91 159.36 240.509 163.967 241.289C173.288 242.786 186.713 244.945 203.302 247.606C236.576 252.79 282.474 259.931 333.192 267.83C383.9 275.686 429.798 282.869 462.997 288.267C479.597 290.96 493.022 293.205 502.289 294.83C506.918 295.642 510.52 296.294 512.946 296.764C515.373 297.235 516.645 297.534 516.634 297.63C516.623 297.726 515.319 297.609 512.861 297.299C510.402 296.989 506.779 296.486 502.129 295.813C492.819 294.455 479.362 292.392 462.752 289.763C429.531 284.515 383.686 276.99 333.064 268.599H333.075Z" fill="#EBEBEB"/>
<path d="M330.241 279.726C281.564 263.607 237.505 249.017 205.577 238.446C189.619 233.251 176.707 229.04 167.739 226.122C163.282 224.711 159.819 223.61 157.424 222.851C156.27 222.498 155.372 222.231 154.731 222.028C154.121 221.846 153.811 221.771 153.801 221.782C153.801 221.804 154.1 221.921 154.688 222.135C155.319 222.359 156.206 222.659 157.349 223.054C159.733 223.856 163.175 225.01 167.611 226.485C176.579 229.414 189.491 233.625 205.438 238.831C237.473 249.113 281.66 263.297 330.487 278.967C379.303 294.594 423.49 308.81 455.407 319.307C471.365 324.544 484.267 328.852 493.16 331.888C497.606 333.405 501.048 334.613 503.378 335.458C505.708 336.302 506.906 336.794 506.884 336.879C506.852 336.965 505.591 336.655 503.207 335.971C500.824 335.287 497.339 334.228 492.85 332.839C483.871 330.049 470.916 325.923 454.937 320.75C422.966 310.403 378.896 295.856 330.252 279.705L330.241 279.726Z" fill="#EBEBEB"/>
<path d="M325.678 290.265C280.176 266.793 238.992 245.565 209.149 230.162C194.216 222.552 182.138 216.395 173.747 212.119C169.579 210.035 166.329 208.41 164.085 207.288C162.994 206.754 162.161 206.347 161.562 206.059C160.985 205.792 160.696 205.663 160.686 205.674C160.686 205.695 160.953 205.856 161.509 206.166C162.096 206.476 162.92 206.925 163.988 207.491C166.212 208.646 169.429 210.324 173.576 212.472C181.967 216.758 194.045 222.926 208.967 230.536C238.96 245.661 280.325 266.525 326.041 289.592C371.758 312.605 413.113 333.512 442.966 348.819C457.899 356.472 469.945 362.714 478.239 367.097C482.387 369.288 485.593 371.009 487.763 372.206C489.922 373.403 491.034 374.076 490.991 374.151C490.948 374.237 489.751 373.724 487.507 372.676C485.273 371.629 481.991 370.036 477.78 367.962C469.357 363.815 457.225 357.733 442.261 350.133C412.343 334.955 371.138 313.749 325.678 290.255V290.265Z" fill="#EBEBEB"/>
<path d="M319.499 299.971C278.272 269.775 240.968 242.454 213.925 222.648C200.382 212.836 189.426 204.883 181.816 199.368C178.021 196.663 175.071 194.558 173.04 193.104C172.046 192.409 171.288 191.886 170.742 191.501C170.219 191.148 169.951 190.966 169.93 190.988C169.919 190.998 170.165 191.212 170.668 191.597C171.202 192.003 171.94 192.559 172.902 193.286C174.911 194.772 177.829 196.92 181.581 199.688C189.191 205.214 200.137 213.167 213.669 222.99C240.893 242.55 278.443 269.54 319.947 299.362C361.452 329.141 398.991 356.162 426.045 375.883C439.577 385.738 450.49 393.776 457.994 399.377C461.745 402.177 464.642 404.379 466.587 405.886C468.533 407.404 469.527 408.238 469.473 408.313C469.42 408.387 468.319 407.703 466.267 406.314C464.225 404.935 461.232 402.861 457.406 400.168C449.742 394.781 438.722 386.892 425.157 377.091C398.008 357.487 360.672 330.188 319.499 299.981V299.971Z" fill="#EBEBEB"/>
<path d="M311.857 308.607C275.9 272.458 243.353 239.75 219.762 216.032C207.941 204.263 198.363 194.729 191.715 188.112C188.401 184.863 185.815 182.33 184.03 180.577C183.164 179.743 182.49 179.102 182.009 178.642C181.55 178.215 181.304 178.001 181.293 178.011C181.283 178.022 181.496 178.268 181.924 178.728C182.384 179.209 183.036 179.871 183.869 180.737C185.622 182.511 188.166 185.087 191.437 188.39C198.075 195.017 207.641 204.552 219.463 216.331C243.267 239.836 276.114 272.255 312.402 308.073C348.702 343.848 381.527 376.3 405.138 399.943C416.95 411.754 426.463 421.364 432.993 428.055C436.254 431.4 438.776 434.009 440.454 435.804C442.132 437.6 442.988 438.573 442.923 438.637C442.859 438.701 441.876 437.857 440.069 436.178C438.263 434.5 435.644 431.999 432.288 428.739C425.575 422.24 415.923 412.759 404.07 400.991C380.34 377.465 347.772 344.768 311.857 308.607Z" fill="#EBEBEB"/>
<path d="M302.942 315.961C273.12 274.735 246.131 237.431 226.57 210.388C216.747 196.941 208.795 186.06 203.269 178.503C200.5 174.783 198.352 171.887 196.866 169.877C196.139 168.915 195.573 168.178 195.177 167.654C194.793 167.162 194.589 166.906 194.568 166.916C194.547 166.927 194.728 167.205 195.081 167.718C195.466 168.263 195.99 169.022 196.684 170.006C198.138 172.026 200.244 174.954 202.948 178.728C208.464 186.285 216.416 197.176 226.228 210.623C246.035 237.484 273.366 274.553 303.573 315.512C333.79 356.429 361.1 393.519 380.692 420.487C390.494 433.966 398.382 444.922 403.77 452.521C406.463 456.327 408.537 459.298 409.916 461.329C411.294 463.36 411.979 464.45 411.904 464.504C411.829 464.557 410.995 463.574 409.477 461.639C407.96 459.704 405.758 456.829 402.957 453.099C397.346 445.649 389.318 434.799 379.452 421.364C359.721 394.481 332.7 357.188 302.931 315.961H302.942Z" fill="#EBEBEB"/>
<path d="M292.981 321.862C270.064 276.541 249.328 235.539 234.289 205.813C226.711 191.02 220.586 179.048 216.332 170.732C214.194 166.628 212.527 163.432 211.372 161.23C210.806 160.172 210.367 159.36 210.058 158.772C209.758 158.227 209.587 157.949 209.577 157.949C209.555 157.949 209.683 158.248 209.951 158.825C210.239 159.424 210.645 160.247 211.169 161.326C212.281 163.55 213.895 166.767 215.968 170.903C220.223 179.219 226.337 191.201 233.904 205.995C249.211 235.581 270.332 276.402 293.665 321.509C317.031 366.573 338.12 407.426 353.202 437.076C360.748 451.902 366.798 463.937 370.913 472.275C372.976 476.443 374.548 479.703 375.584 481.916C376.621 484.139 377.124 485.326 377.049 485.358C376.963 485.4 376.301 484.299 375.103 482.151C373.917 480.003 372.196 476.828 370.016 472.713C365.655 464.482 359.444 452.543 351.834 437.739C336.613 408.152 315.834 367.15 292.971 321.84L292.981 321.862Z" fill="#EBEBEB"/>
<path d="M282.207 326.137C266.804 277.824 252.866 234.117 242.765 202.425C237.645 186.637 233.498 173.864 230.623 164.993C229.158 160.61 228.025 157.2 227.245 154.838C226.849 153.705 226.55 152.829 226.336 152.209C226.123 151.621 226.005 151.322 225.984 151.322C225.962 151.322 226.048 151.642 226.219 152.241C226.411 152.871 226.678 153.759 227.021 154.902C227.769 157.275 228.848 160.696 230.238 165.11C233.113 173.982 237.239 186.766 242.348 202.553C252.748 234.149 267.093 277.738 282.944 325.902C298.828 374.034 313.14 417.644 323.305 449.272C328.393 465.092 332.444 477.908 335.181 486.79C336.549 491.226 337.586 494.689 338.259 497.04C338.932 499.392 339.242 500.643 339.146 500.675C339.061 500.707 338.569 499.51 337.735 497.212C336.902 494.913 335.715 491.504 334.219 487.1C331.226 478.303 326.993 465.541 321.841 449.742C311.526 418.157 297.556 374.44 282.196 326.148L282.207 326.137Z" fill="#EBEBEB"/>
<path d="M270.877 328.692C263.373 278.593 256.586 233.262 251.658 200.405C249.125 184.029 247.073 170.764 245.64 161.551C244.903 156.997 244.326 153.449 243.93 151.001C243.727 149.825 243.567 148.917 243.449 148.265C243.331 147.645 243.267 147.335 243.246 147.335C243.225 147.335 243.246 147.655 243.331 148.275C243.417 148.927 243.545 149.846 243.706 151.033C244.069 153.491 244.582 157.04 245.255 161.604C246.677 170.818 248.719 184.072 251.241 200.458C256.468 233.273 263.672 278.54 271.646 328.574C279.652 378.566 286.824 423.854 291.816 456.669C294.317 473.076 296.273 486.362 297.556 495.555C298.197 500.151 298.667 503.721 298.956 506.147C299.245 508.574 299.352 509.856 299.255 509.867C299.159 509.878 298.881 508.627 298.422 506.222C297.962 503.817 297.342 500.268 296.562 495.694C295.012 486.544 292.874 473.279 290.298 456.883C285.157 424.089 278.327 378.758 270.866 328.681L270.877 328.692Z" fill="#EBEBEB"/>
<path d="M259.268 329.472C259.728 278.839 260.144 233.005 260.454 199.795C260.529 183.228 260.583 169.813 260.625 160.493C260.615 155.875 260.604 152.284 260.593 149.804C260.572 148.607 260.561 147.687 260.551 147.025C260.54 146.394 260.519 146.073 260.497 146.073C260.476 146.073 260.454 146.394 260.433 147.025C260.422 147.687 260.401 148.607 260.369 149.804C260.337 152.284 260.294 155.875 260.241 160.493C260.198 169.803 260.134 183.217 260.048 199.795C260.048 233.016 260.048 278.839 260.048 329.483C260.08 380.094 260.048 425.928 259.813 459.117C259.706 475.706 259.546 489.131 259.375 498.409C259.289 503.048 259.193 506.65 259.097 509.098C259.001 511.545 258.905 512.828 258.808 512.817C258.712 512.817 258.627 511.535 258.562 509.087C258.488 506.639 258.434 503.037 258.381 498.398C258.295 489.12 258.263 475.695 258.306 459.095C258.381 425.917 258.766 380.084 259.257 329.472H259.268Z" fill="#EBEBEB"/>
<path d="M247.681 328.467C256.125 278.518 263.757 233.315 269.294 200.543C271.977 184.19 274.147 170.946 275.654 161.743C276.37 157.179 276.915 153.63 277.3 151.183C277.471 149.996 277.599 149.087 277.695 148.435C277.781 147.816 277.813 147.495 277.792 147.495C277.77 147.495 277.695 147.805 277.578 148.425C277.46 149.077 277.289 149.985 277.075 151.161C276.659 153.609 276.049 157.147 275.258 161.7C273.74 170.893 271.571 184.136 268.877 200.49C263.65 233.305 256.425 278.572 248.451 328.595C240.52 378.598 233.262 423.876 227.811 456.615C225.085 472.991 222.819 486.223 221.184 495.362C220.361 499.937 219.709 503.475 219.228 505.869C218.747 508.264 218.447 509.514 218.351 509.504C218.255 509.493 218.372 508.21 218.682 505.784C218.992 503.358 219.505 499.787 220.19 495.202C221.558 486.02 223.642 472.755 226.304 456.369C231.605 423.598 239.205 378.384 247.681 328.467Z" fill="#EBEBEB"/>
<path d="M236.405 325.688C252.716 277.674 267.477 234.224 278.177 202.724C283.435 186.99 287.69 174.249 290.65 165.399C292.083 161.006 293.194 157.585 293.964 155.223C294.317 154.079 294.595 153.203 294.798 152.561C294.979 151.963 295.065 151.653 295.044 151.642C295.022 151.642 294.905 151.931 294.691 152.519C294.466 153.139 294.156 154.015 293.75 155.137C292.949 157.489 291.773 160.888 290.276 165.26C287.316 174.11 283.051 186.84 277.781 202.574C267.381 234.171 253.026 277.749 237.164 325.913C221.344 374.066 206.957 417.644 196.343 449.133C191.041 464.878 186.68 477.598 183.613 486.373C182.073 490.755 180.855 494.155 180 496.453C179.145 498.751 178.642 499.937 178.557 499.905C178.471 499.873 178.781 498.633 179.476 496.282C180.171 493.93 181.24 490.488 182.651 486.063C185.473 477.213 189.652 464.429 194.889 448.663C205.354 417.131 220.083 373.66 236.437 325.677L236.405 325.688Z" fill="#EBEBEB"/>
<path d="M225.716 321.199C249.488 276.306 270.994 235.688 286.578 206.241C294.284 191.511 300.516 179.593 304.845 171.32C306.961 167.205 308.607 163.998 309.74 161.786C310.275 160.706 310.692 159.883 310.98 159.295C311.258 158.729 311.387 158.44 311.365 158.43C311.344 158.43 311.183 158.697 310.873 159.242C310.553 159.819 310.115 160.631 309.537 161.69C308.362 163.881 306.673 167.066 304.492 171.149C300.153 179.422 293.91 191.34 286.193 206.059C270.876 235.646 249.744 276.455 226.389 321.552C203.087 366.648 181.913 407.447 166.403 436.895C158.654 451.624 152.326 463.51 147.89 471.697C145.667 475.791 143.925 478.955 142.717 481.093C141.509 483.22 140.825 484.321 140.74 484.278C140.654 484.235 141.167 483.059 142.236 480.847C143.294 478.634 144.908 475.406 147.003 471.248C151.204 462.943 157.371 450.972 165.057 436.21C180.427 406.699 201.912 366.049 225.694 321.199H225.716Z" fill="#EBEBEB"/>
<path d="M215.86 315.106C246.451 274.435 274.135 237.623 294.198 210.944C304.139 197.583 312.187 186.776 317.778 179.262C320.525 175.521 322.652 172.614 324.127 170.604C324.821 169.621 325.367 168.873 325.751 168.338C326.115 167.825 326.286 167.547 326.275 167.536C326.254 167.526 326.051 167.772 325.655 168.263C325.249 168.787 324.683 169.525 323.945 170.476C322.438 172.464 320.257 175.339 317.468 179.038C311.877 186.541 303.818 197.348 293.867 210.698C274.05 237.559 246.708 274.606 216.49 315.555C186.327 356.504 158.942 393.541 138.964 420.241C128.981 433.592 120.836 444.355 115.16 451.763C112.317 455.461 110.094 458.326 108.565 460.239C107.026 462.163 106.182 463.136 106.107 463.082C106.032 463.029 106.727 461.938 108.127 459.918C109.527 457.898 111.622 454.948 114.359 451.175C119.821 443.618 127.805 432.747 137.746 419.354C157.606 392.568 185.268 355.734 215.87 315.106H215.86Z" fill="#EBEBEB"/>
<path d="M207.107 307.571C243.738 272.084 276.894 239.974 300.923 216.694C312.851 205.022 322.514 195.584 329.216 189.021C332.519 185.75 335.084 183.196 336.848 181.443C337.692 180.587 338.344 179.925 338.815 179.444C339.253 178.995 339.467 178.749 339.456 178.738C339.445 178.728 339.199 178.941 338.729 179.369C338.248 179.829 337.564 180.459 336.688 181.282C334.892 183.014 332.284 185.526 328.938 188.743C322.226 195.295 312.563 204.733 300.623 216.395C276.809 239.889 243.951 272.297 207.652 308.105C171.396 343.923 138.506 376.31 114.553 399.623C102.581 411.273 92.8437 420.669 86.0669 427.104C82.6786 430.321 80.0278 432.801 78.2107 434.468C76.3936 436.125 75.3995 436.969 75.3354 436.905C75.2713 436.841 76.1264 435.868 77.8259 434.094C79.5254 432.32 82.0693 429.722 85.3615 426.409C91.9458 419.782 101.555 410.269 113.484 398.564C137.33 375.156 170.455 343.004 207.096 307.571H207.107Z" fill="#EBEBEB"/>
<path d="M199.635 298.795C241.418 269.358 279.235 242.722 306.641 223.418C320.269 213.723 331.3 205.867 338.953 200.415C342.726 197.69 345.666 195.563 347.696 194.098C348.669 193.382 349.417 192.826 349.952 192.431C350.454 192.046 350.711 191.843 350.7 191.832C350.689 191.821 350.411 191.992 349.888 192.335C349.332 192.709 348.573 193.232 347.568 193.916C345.516 195.349 342.544 197.433 338.728 200.095C331.065 205.546 320.034 213.381 306.395 223.076C279.17 242.625 241.599 269.604 200.084 299.415C158.611 329.237 121.019 356.194 93.6874 375.541C80.0271 385.214 68.9215 392.996 61.2148 398.319C57.3562 400.98 54.3526 403.022 52.2897 404.39C50.2267 405.747 49.1258 406.431 49.0723 406.357C49.0189 406.282 50.0236 405.459 51.9797 403.962C53.9358 402.466 56.8538 400.296 60.6376 397.528C68.1946 391.991 79.1827 384.06 92.8003 374.333C120.046 354.858 157.842 328.189 199.635 298.806V298.795Z" fill="#EBEBEB"/>
<path d="M193.649 288.972C239.589 266.344 281.158 245.864 311.29 231.017C326.286 223.535 338.418 217.485 346.852 213.285C351.01 211.168 354.248 209.522 356.482 208.389C357.551 207.833 358.385 207.395 358.973 207.085C359.529 206.786 359.807 206.625 359.807 206.604C359.807 206.583 359.497 206.711 358.919 206.978C358.321 207.267 357.476 207.662 356.375 208.186C354.12 209.287 350.86 210.88 346.67 212.932C338.237 217.133 326.094 223.172 311.098 230.643C281.105 245.757 239.728 266.611 194.002 289.656C148.318 312.723 106.909 333.544 76.8416 348.445C61.8132 355.895 49.6172 361.87 41.1517 365.932C36.9189 367.962 33.6268 369.523 31.3714 370.549C29.1268 371.575 27.9189 372.078 27.8762 371.992C27.8334 371.907 28.9557 371.255 31.1256 370.079C33.2954 368.903 36.5234 367.214 40.6921 365.055C49.0293 360.747 61.1398 354.612 76.1362 347.109C106.129 332.08 147.698 311.568 193.628 288.983L193.649 288.972Z" fill="#EBEBEB"/>
<path d="M189.31 278.347C238.287 263.126 282.613 249.359 314.733 239.376C330.734 234.32 343.689 230.226 352.678 227.383C357.125 225.94 360.577 224.818 362.971 224.048C364.115 223.663 365.002 223.364 365.633 223.15C366.232 222.937 366.531 222.83 366.531 222.808C366.531 222.787 366.21 222.872 365.601 223.043C364.96 223.236 364.062 223.492 362.897 223.834C360.492 224.572 357.018 225.641 352.55 227.009C343.55 229.842 330.595 233.935 314.594 238.98C282.56 249.252 238.372 263.426 189.535 279.085C140.74 294.776 96.5315 308.917 64.4651 318.965C48.4319 323.989 35.4343 327.997 26.4343 330.701C21.9343 332.048 18.4284 333.074 16.0448 333.747C13.6612 334.41 12.3892 334.72 12.3678 334.624C12.3357 334.538 13.5543 334.057 15.8844 333.234C18.2146 332.411 21.6778 331.236 26.135 329.761C35.0602 326.8 47.9936 322.62 64.0055 317.533C96.0291 307.346 140.345 293.536 189.31 278.358V278.347Z" fill="#EBEBEB"/>
<path d="M186.701 267.167C237.494 259.738 283.467 253.015 316.784 248.141C333.394 245.629 346.841 243.598 356.172 242.187C360.79 241.45 364.392 240.883 366.871 240.488C368.069 240.285 368.988 240.124 369.651 240.017C370.271 239.9 370.591 239.836 370.591 239.814C370.591 239.793 370.26 239.814 369.629 239.9C368.966 239.985 368.037 240.114 366.839 240.263C364.349 240.616 360.747 241.14 356.119 241.802C346.777 243.203 333.33 245.233 316.72 247.735C283.445 252.908 237.548 260.048 186.818 267.936C136.121 275.857 90.213 282.965 56.9387 287.903C40.3069 290.383 26.8283 292.318 17.5077 293.59C12.8473 294.231 9.22383 294.691 6.7654 294.979C4.30698 295.268 3.00294 295.375 2.99225 295.278C2.98157 295.182 4.25353 294.904 6.69058 294.455C9.12763 294.007 12.7298 293.387 17.3687 292.617C26.6466 291.078 40.0931 288.961 56.7249 286.417C89.9778 281.33 135.94 274.564 186.712 267.178L186.701 267.167Z" fill="#EBEBEB"/>
<path d="M185.91 255.73C237.26 256.157 283.724 256.542 317.404 256.82C334.207 256.884 347.814 256.927 357.252 256.959C361.934 256.938 365.568 256.927 368.091 256.916C369.309 256.895 370.239 256.884 370.912 256.873C371.543 256.863 371.874 256.841 371.874 256.82C371.874 256.799 371.554 256.777 370.912 256.756C370.239 256.745 369.309 256.724 368.091 256.692C365.579 256.66 361.934 256.628 357.252 256.574C347.803 256.531 334.207 256.478 317.404 256.414C283.724 256.435 237.249 256.457 185.9 256.489C134.572 256.553 88.0972 256.542 54.4488 256.339C37.6246 256.243 24.0071 256.104 14.6009 255.933C9.89784 255.847 6.24227 255.762 3.76246 255.666C1.30404 255.591 0 255.495 0 255.398C0 255.302 1.30404 255.227 3.78384 255.153C6.26364 255.078 9.91922 255.014 14.6223 254.971C24.0284 254.875 37.646 254.843 54.4702 254.864C88.1186 254.917 134.594 255.259 185.91 255.73Z" fill="#EBEBEB"/>
<path d="M186.914 244.304C237.569 252.598 283.413 260.102 316.645 265.532C333.234 268.161 346.659 270.299 355.99 271.774C360.618 272.469 364.21 273.014 366.7 273.388C367.897 273.559 368.827 273.687 369.49 273.773C370.121 273.858 370.441 273.89 370.452 273.869C370.452 273.847 370.142 273.783 369.511 273.655C368.849 273.537 367.929 273.377 366.743 273.163C364.263 272.746 360.672 272.148 356.065 271.378C346.744 269.893 333.308 267.755 316.73 265.104C283.456 259.963 237.547 252.876 186.808 245.041C136.1 237.249 90.1806 230.12 56.9812 224.764C40.3815 222.092 26.9456 219.858 17.6784 218.255C13.0395 217.453 9.44805 216.801 7.02169 216.331C4.58464 215.861 3.32336 215.561 3.33405 215.476C3.34474 215.38 4.64878 215.497 7.1072 215.807C9.56563 216.117 13.1891 216.609 17.8388 217.282C27.1487 218.629 40.6059 220.681 57.2163 223.289C90.4479 228.495 136.303 235.966 186.925 244.293L186.914 244.304Z" fill="#EBEBEB"/>
<path d="M189.727 233.176C238.425 249.231 282.495 263.768 314.444 274.296C330.402 279.47 343.325 283.66 352.303 286.567C356.761 287.978 360.224 289.068 362.618 289.827C363.783 290.18 364.67 290.447 365.312 290.639C365.921 290.821 366.231 290.896 366.242 290.875C366.242 290.853 365.942 290.736 365.344 290.522C364.713 290.297 363.826 289.998 362.682 289.603C360.299 288.812 356.846 287.657 352.421 286.182C343.453 283.264 330.53 279.064 314.572 273.879C282.527 263.64 238.329 249.509 189.47 233.903C140.633 218.34 96.4346 204.167 64.4964 193.724C48.5274 188.508 35.626 184.222 26.7329 181.186C22.2863 179.668 18.8445 178.471 16.5144 177.627C14.1842 176.782 12.9764 176.291 13.0084 176.205C13.0405 176.12 14.3018 176.43 16.6854 177.114C19.069 177.798 22.5642 178.845 27.0535 180.235C36.0321 183.014 48.9977 187.118 64.9881 192.281C96.969 202.585 141.06 217.079 189.727 233.166V233.176Z" fill="#EBEBEB"/>
<path d="M194.281 222.627C239.815 246.035 281.02 267.22 310.885 282.58C325.828 290.169 337.917 296.315 346.308 300.58C350.487 302.664 353.736 304.289 355.981 305.401C357.071 305.924 357.905 306.331 358.514 306.63C359.091 306.897 359.38 307.025 359.391 307.015C359.391 306.993 359.124 306.833 358.568 306.534C357.98 306.224 357.157 305.785 356.088 305.208C353.865 304.054 350.637 302.386 346.5 300.238C338.109 295.962 326.02 289.816 311.088 282.217C281.085 267.124 239.676 246.313 193.939 223.311C148.201 200.351 106.803 179.508 76.9389 164.234C62.0067 156.602 49.939 150.37 41.6445 145.998C37.4972 143.818 34.2799 142.097 32.1207 140.9C29.9616 139.703 28.8393 139.04 28.882 138.954C28.9248 138.869 30.1219 139.382 32.3666 140.43C34.6112 141.477 37.8927 143.059 42.1041 145.122C50.5269 149.259 62.6694 155.33 77.6444 162.908C107.584 178.043 148.81 199.207 194.302 222.637L194.281 222.627Z" fill="#EBEBEB"/>
<path d="M200.458 212.921C241.716 243.064 279.063 270.342 306.127 290.116C319.681 299.917 330.647 307.849 338.268 313.353C342.063 316.058 345.013 318.153 347.055 319.606C348.049 320.29 348.808 320.825 349.363 321.21C349.887 321.562 350.165 321.744 350.176 321.723C350.186 321.712 349.941 321.498 349.438 321.113C348.904 320.707 348.166 320.151 347.194 319.425C345.173 317.939 342.255 315.801 338.504 313.033C330.893 307.517 319.926 299.575 306.384 289.774C279.138 270.245 241.545 243.309 200.009 213.53C158.472 183.805 120.89 156.826 93.8046 137.138C80.2618 127.293 69.3379 119.276 61.8343 113.686C58.0825 110.886 55.1859 108.695 53.2298 107.187C51.2845 105.68 50.2904 104.847 50.3438 104.772C50.3973 104.697 51.4982 105.381 53.5505 106.76C55.6027 108.139 58.5849 110.212 62.4222 112.895C70.0861 118.282 81.1169 126.149 94.7024 135.94C121.873 155.512 159.241 182.757 200.468 212.921H200.458Z" fill="#EBEBEB"/>
<path d="M208.09 204.274C244.101 240.381 276.68 273.046 300.303 296.732C312.146 308.49 321.723 318.003 328.382 324.619C331.706 327.869 334.293 330.402 336.078 332.144C336.955 332.978 337.617 333.619 338.098 334.079C338.558 334.506 338.804 334.72 338.815 334.71C338.825 334.699 338.611 334.453 338.184 333.993C337.724 333.512 337.072 332.85 336.238 331.984C334.486 330.209 331.931 327.644 328.671 324.341C322.022 317.725 312.445 308.201 300.613 296.444C276.777 272.971 243.898 240.594 207.556 204.808C171.203 169.076 138.346 136.667 114.702 113.056C102.88 101.255 93.346 91.6673 86.8151 84.9867C83.5443 81.6518 81.0324 79.0331 79.3436 77.248C77.6548 75.4523 76.8104 74.4796 76.8745 74.4155C76.9386 74.3514 77.922 75.1958 79.7284 76.8739C81.5348 78.5521 84.1643 81.0533 87.5205 84.3027C94.2438 90.7908 103.896 100.261 115.771 112.019C139.532 135.513 172.144 168.167 208.101 204.285L208.09 204.274Z" fill="#EBEBEB"/>
<path d="M216.983 196.909C246.859 238.093 273.891 275.376 293.483 302.386C303.328 315.812 311.291 326.693 316.828 334.239C319.596 337.959 321.755 340.856 323.241 342.854C323.968 343.816 324.534 344.543 324.93 345.078C325.315 345.569 325.528 345.826 325.539 345.815C325.56 345.804 325.379 345.537 325.026 345.013C324.641 344.468 324.107 343.709 323.423 342.726C321.969 340.706 319.853 337.777 317.148 334.015C311.622 326.458 303.659 315.587 293.825 302.151C273.976 275.312 246.602 238.286 216.353 197.358C186.082 156.484 158.729 119.426 139.094 92.4796C129.271 79.0117 121.372 68.0663 115.974 60.4666C113.27 56.6614 111.196 53.7006 109.817 51.6697C108.439 49.6388 107.744 48.5486 107.829 48.4951C107.904 48.4417 108.738 49.425 110.256 51.3597C111.773 53.2944 113.975 56.1697 116.787 59.8894C122.409 67.3395 130.447 78.1673 140.323 91.6031C160.087 118.464 187.151 155.715 216.983 196.909Z" fill="#EBEBEB"/>
<path d="M226.934 190.998C249.904 236.287 270.705 277.268 285.776 306.972C293.365 321.755 299.511 333.726 303.787 342.031C305.935 346.136 307.603 349.321 308.757 351.523C309.324 352.581 309.762 353.394 310.083 353.981C310.382 354.527 310.553 354.804 310.574 354.804C310.596 354.804 310.467 354.505 310.189 353.928C309.901 353.329 309.495 352.506 308.971 351.427C307.849 349.203 306.235 345.986 304.15 341.86C299.885 333.544 293.75 321.573 286.172 306.79C270.823 277.225 249.659 236.426 226.261 191.351C202.842 146.308 181.699 105.499 166.575 75.8585C159.007 61.0438 152.946 49.0189 148.82 40.6816C146.757 36.513 145.176 33.2636 144.128 31.0403C143.081 28.8277 142.578 27.6412 142.664 27.5985C142.749 27.5557 143.412 28.6567 144.609 30.8051C145.806 32.9429 147.527 36.1282 149.708 40.2327C154.079 48.4524 160.311 60.3918 167.932 75.1851C183.196 104.761 204.017 145.731 226.945 191.02L226.934 190.998Z" fill="#EBEBEB"/>
<path d="M237.709 186.702C253.176 234.994 267.167 278.689 277.311 310.36C282.452 326.137 286.61 338.91 289.496 347.771C290.96 352.154 292.104 355.563 292.884 357.915C293.28 359.048 293.579 359.924 293.793 360.544C294.007 361.132 294.124 361.432 294.146 361.432C294.167 361.432 294.082 361.111 293.911 360.512C293.718 359.882 293.451 358.995 293.098 357.851C292.35 355.489 291.26 352.057 289.87 347.654C286.984 338.782 282.837 326.009 277.706 310.232C267.263 278.647 252.866 235.079 236.961 186.937C221.013 138.826 206.647 95.2374 196.439 63.6198C191.33 47.8111 187.258 34.9952 184.511 26.1235C183.142 21.6876 182.095 18.2351 181.422 15.8836C180.748 13.5321 180.438 12.2815 180.524 12.2494C180.609 12.2173 181.101 13.4145 181.935 15.7126C182.768 18.0107 183.965 21.4204 185.462 25.8135C188.465 34.6104 192.709 47.3622 197.882 63.1495C208.24 94.7243 222.263 138.42 237.687 186.691L237.709 186.702Z" fill="#EBEBEB"/>
<path d="M249.039 184.136C256.607 234.224 263.458 279.544 268.418 312.402C270.972 328.777 273.046 342.042 274.489 351.245C275.237 355.798 275.815 359.347 276.221 361.795C276.424 362.971 276.584 363.879 276.702 364.531C276.819 365.151 276.883 365.461 276.905 365.461C276.926 365.461 276.905 365.141 276.819 364.521C276.734 363.869 276.606 362.949 276.445 361.763C276.082 359.304 275.558 355.756 274.885 351.192C273.452 341.989 271.389 328.724 268.845 312.348C263.576 279.544 256.307 234.277 248.28 184.264C240.21 134.284 232.984 89.0057 227.95 56.1911C225.427 39.7838 223.45 26.4976 222.157 17.3052C221.505 12.709 221.034 9.13893 220.735 6.71257C220.446 4.28621 220.34 3.00355 220.425 2.99287C220.521 2.98218 220.81 4.23277 221.27 6.63775C221.729 9.04273 222.36 12.5914 223.14 17.1662C224.701 26.3159 226.86 39.5807 229.446 55.9666C234.631 88.7492 241.514 134.08 249.039 184.147V184.136Z" fill="#EBEBEB"/>
<path d="M260.637 183.345C260.241 233.978 259.878 279.812 259.621 313.022C259.568 329.59 259.536 343.004 259.504 352.325C259.525 356.942 259.536 360.534 259.547 363.013C259.568 364.211 259.579 365.13 259.589 365.793C259.611 366.423 259.621 366.744 259.643 366.744C259.664 366.744 259.686 366.423 259.707 365.793C259.718 365.13 259.739 364.211 259.771 363.013C259.803 360.534 259.835 356.942 259.889 352.325C259.921 343.015 259.974 329.6 260.028 313.022C259.985 279.801 259.931 233.978 259.867 183.335C259.771 132.723 259.75 86.8894 259.931 53.7006C260.017 37.1116 260.156 23.6864 260.316 14.4085C260.402 9.76957 260.487 6.16744 260.573 3.71971C260.669 1.28266 260.765 0 260.851 0C260.947 0 261.032 1.28266 261.107 3.7304C261.182 6.17813 261.246 9.78026 261.3 14.4192C261.407 23.6971 261.449 37.1222 261.428 53.722C261.396 86.9 261.075 132.734 260.637 183.345Z" fill="#EBEBEB"/>
<path d="M272.223 184.329C263.854 234.288 256.276 279.502 250.782 312.274C248.12 328.638 245.972 341.882 244.475 351.074C243.77 355.638 243.225 359.187 242.84 361.635C242.669 362.821 242.541 363.73 242.444 364.382C242.359 365.002 242.327 365.322 242.348 365.322C242.37 365.322 242.444 365.012 242.562 364.392C242.68 363.74 242.851 362.832 243.064 361.656C243.481 359.208 244.09 355.67 244.871 351.117C246.367 341.924 248.537 328.681 251.209 312.316C256.393 279.491 263.555 234.213 271.465 184.179C279.332 134.166 286.525 88.8774 291.934 56.1269C294.638 39.7517 296.883 26.5082 298.507 17.3693C299.32 12.7945 299.972 9.25649 300.453 6.8515C300.934 4.45721 301.222 3.19593 301.318 3.21731C301.415 3.228 301.297 4.51065 300.987 6.93701C300.677 9.36337 300.175 12.9334 299.501 17.5189C298.144 26.7006 296.07 39.9761 293.441 56.3621C288.182 89.134 280.636 134.358 272.223 184.296V184.329Z" fill="#EBEBEB"/>
<path d="M283.51 187.097C267.263 235.133 252.555 278.604 241.899 310.115C236.661 325.859 232.418 338.6 229.478 347.461C228.057 351.854 226.945 355.275 226.175 357.637C225.823 358.781 225.545 359.657 225.352 360.299C225.171 360.897 225.096 361.207 225.106 361.218C225.128 361.218 225.245 360.929 225.459 360.341C225.684 359.721 225.994 358.845 226.389 357.723C227.191 355.371 228.356 351.972 229.852 347.6C232.802 338.75 237.057 326.009 242.305 310.264C252.673 278.657 266.964 235.058 282.762 186.873C298.517 138.698 312.851 95.0984 323.422 63.5985C328.702 47.8432 333.042 35.1235 336.11 26.348C337.638 21.9656 338.857 18.5665 339.712 16.2684C340.567 13.9703 341.059 12.7839 341.155 12.8159C341.24 12.848 340.93 14.0879 340.236 16.4394C339.541 18.791 338.483 22.2328 337.072 26.658C334.261 35.519 330.103 48.3028 324.887 64.0795C314.454 95.6222 299.789 139.115 283.51 187.118V187.097Z" fill="#EBEBEB"/>
<path d="M294.21 191.576C270.503 236.49 249.039 277.139 233.498 306.609C225.813 321.348 219.592 333.277 215.273 341.561C213.168 345.676 211.522 348.883 210.389 351.095C209.854 352.175 209.437 352.998 209.149 353.586C208.871 354.152 208.743 354.441 208.764 354.452C208.785 354.462 208.946 354.184 209.256 353.639C209.576 353.062 210.015 352.25 210.592 351.192C211.757 349 213.456 345.815 215.626 341.732C219.955 333.448 226.187 321.53 233.883 306.801C249.157 277.204 270.246 236.362 293.537 191.234C316.785 146.105 337.906 105.274 353.373 75.8157C361.101 61.0758 367.418 49.1792 371.843 40.9915C374.056 36.8977 375.798 33.7232 377.006 31.5961C378.214 29.4583 378.887 28.3574 378.973 28.4001C379.058 28.4429 378.545 29.6293 377.487 31.8312C376.429 34.0438 374.825 37.2825 372.73 41.4298C368.54 49.7457 362.394 61.7172 354.72 76.4891C339.392 106.022 317.961 146.693 294.232 191.576H294.21Z" fill="#EBEBEB"/>
<path d="M304.065 197.658C273.527 238.371 245.886 275.205 225.855 301.916C215.925 315.288 207.898 326.105 202.308 333.619C199.571 337.36 197.444 340.278 195.969 342.288C195.274 343.271 194.729 344.019 194.345 344.565C193.981 345.078 193.81 345.356 193.821 345.366C193.831 345.377 194.045 345.131 194.441 344.639C194.847 344.116 195.413 343.378 196.151 342.427C197.658 340.439 199.828 337.553 202.618 333.854C208.208 326.34 216.246 315.523 226.187 302.162C245.972 275.28 273.271 238.19 303.424 197.209C333.534 156.228 360.866 119.148 380.822 92.4262C390.794 79.0652 398.918 68.2908 404.583 60.8835C407.415 57.1852 409.639 54.3206 411.167 52.3966C412.696 50.4726 413.54 49.4892 413.615 49.5534C413.69 49.6068 412.995 50.6971 411.595 52.7173C410.194 54.7374 408.099 57.6875 405.374 61.4714C399.922 69.0391 391.949 79.9203 382.029 93.324C362.202 120.132 334.592 157.008 304.033 197.668L304.065 197.658Z" fill="#EBEBEB"/>
<path d="M312.829 205.172C276.241 240.701 243.127 272.853 219.131 296.166C207.212 307.848 197.571 317.308 190.869 323.882C187.577 327.163 185.012 329.707 183.248 331.471C182.404 332.326 181.752 332.989 181.292 333.47C180.854 333.929 180.64 334.164 180.651 334.175C180.661 334.186 180.907 333.972 181.378 333.544C181.859 333.085 182.543 332.454 183.419 331.62C185.215 329.889 187.823 327.377 191.158 324.149C197.86 317.586 207.512 308.137 219.43 296.454C243.212 272.928 276.027 240.488 312.284 204.627C348.497 168.755 381.344 136.325 405.265 112.991C417.226 101.319 426.942 91.9238 433.719 85.4677C437.107 82.2397 439.748 79.7599 441.565 78.0925C443.382 76.425 444.365 75.5913 444.429 75.6554C444.493 75.7195 443.638 76.6922 441.939 78.4666C440.239 80.2516 437.706 82.8383 434.414 86.1625C427.83 92.8003 418.242 102.324 406.334 114.05C382.52 137.49 349.427 169.674 312.839 205.161L312.829 205.172Z" fill="#EBEBEB"/>
<path d="M320.311 213.947C278.561 243.438 240.786 270.117 213.402 289.464C199.795 299.18 188.775 307.047 181.121 312.509C177.348 315.245 174.42 317.372 172.389 318.837C171.416 319.553 170.668 320.109 170.133 320.504C169.631 320.889 169.374 321.092 169.385 321.103C169.396 321.124 169.674 320.942 170.197 320.6C170.743 320.226 171.512 319.702 172.517 319.018C174.569 317.586 177.53 315.502 181.346 312.819C188.999 307.367 200.03 299.511 213.647 289.806C240.85 270.224 278.379 243.192 319.851 213.338C361.281 183.463 398.842 156.463 426.152 137.084C439.801 127.389 450.886 119.597 458.592 114.263C462.44 111.602 465.454 109.55 467.507 108.181C469.559 106.813 470.671 106.14 470.724 106.215C470.778 106.29 469.783 107.113 467.817 108.609C465.861 110.105 462.943 112.286 459.169 115.054C451.623 120.602 440.646 128.544 427.028 138.292C399.804 157.799 362.04 184.51 320.3 213.958L320.311 213.947Z" fill="#EBEBEB"/>
<path d="M326.307 223.76C280.399 246.441 238.852 266.974 208.741 281.853C193.756 289.346 181.624 295.417 173.201 299.629C169.043 301.745 165.804 303.391 163.57 304.535C162.501 305.101 161.668 305.529 161.08 305.839C160.524 306.138 160.246 306.299 160.246 306.32C160.246 306.341 160.556 306.213 161.133 305.946C161.732 305.657 162.576 305.262 163.667 304.738C165.922 303.637 169.182 302.034 173.372 299.982C181.795 295.77 193.937 289.71 208.923 282.227C238.894 267.071 280.249 246.174 325.944 223.076C371.596 199.956 412.972 179.08 443.019 164.137C458.036 156.666 470.222 150.68 478.676 146.597C482.899 144.556 486.201 142.995 488.446 141.969C490.691 140.943 491.899 140.44 491.941 140.526C491.984 140.611 490.862 141.274 488.692 142.45C486.522 143.626 483.294 145.325 479.125 147.484C470.788 151.803 458.688 157.949 443.703 165.484C413.721 180.555 372.195 201.121 326.286 223.76H326.307Z" fill="#EBEBEB"/>
<path d="M330.67 234.384C281.715 249.669 237.41 263.49 205.301 273.516C189.311 278.593 176.356 282.708 167.366 285.562C162.92 287.005 159.467 288.138 157.073 288.919C155.929 289.303 155.042 289.603 154.412 289.816C153.813 290.03 153.514 290.148 153.514 290.159C153.514 290.18 153.834 290.094 154.444 289.923C155.085 289.731 155.983 289.464 157.148 289.122C159.542 288.384 163.027 287.305 167.484 285.926C176.473 283.083 189.428 278.978 205.429 273.912C237.453 263.597 281.619 249.37 330.435 233.647C379.208 217.891 423.406 203.697 455.451 193.606C471.474 188.561 484.471 184.532 493.471 181.817C497.971 180.459 501.477 179.433 503.861 178.76C506.244 178.097 507.516 177.787 507.538 177.873C507.57 177.958 506.351 178.439 504.021 179.273C501.691 180.096 498.239 181.272 493.781 182.757C484.867 185.729 471.933 189.919 455.922 195.028C423.909 205.257 379.614 219.121 330.67 234.363V234.384Z" fill="#EBEBEB"/>
<path d="M333.287 245.554C282.504 253.047 236.543 259.834 203.236 264.751C186.626 267.284 173.19 269.337 163.859 270.758C159.241 271.496 155.65 272.073 153.159 272.468C151.962 272.672 151.043 272.832 150.38 272.949C149.76 273.067 149.439 273.131 149.439 273.153C149.439 273.174 149.771 273.153 150.401 273.067C151.064 272.982 151.994 272.853 153.191 272.693C155.682 272.33 159.284 271.816 163.912 271.143C173.243 269.721 186.69 267.68 203.3 265.168C236.564 259.952 282.462 252.758 333.169 244.806C383.856 236.821 429.754 229.66 463.017 224.668C479.649 222.167 493.117 220.211 502.437 218.928C507.098 218.287 510.721 217.817 513.18 217.528C515.638 217.239 516.942 217.132 516.953 217.229C516.964 217.325 515.692 217.603 513.265 218.062C510.828 218.522 507.237 219.142 502.587 219.912C493.309 221.461 479.863 223.599 463.242 226.165C429.999 231.295 384.037 238.115 333.276 245.575L333.287 245.554Z" fill="#EBEBEB"/>
<path d="M399.676 386.165C393.626 379.047 385.267 374.76 379.453 373.125C374.012 371.597 365.76 370.196 357.348 372.249C352.132 373.521 347.557 375.979 343.763 379.56C339.263 383.792 335.832 389.639 333.566 396.929C333.224 398.019 333.341 399.184 333.886 400.189C334.431 401.205 335.351 401.931 336.462 402.241L350.732 406.26C352.741 406.827 354.901 405.811 355.745 403.898C357.637 399.601 362.415 392.814 373.146 395.636C381.323 397.795 383.023 404.625 383.376 407.458C383.942 412.075 382.125 416.853 378.512 420.231C372.954 425.425 365.696 424.421 361.859 423.352C357.455 422.133 352.87 424.699 351.64 429.07L347.322 444.43C346.691 446.675 348.006 449.016 350.24 449.646L364.146 453.558C366.391 454.189 368.732 452.874 369.362 450.64L370.271 447.412C370.292 447.337 370.357 447.284 370.442 447.273C373.905 447.06 380.757 446.098 387.801 442.185C396.79 437.183 402.883 429.177 405.918 418.381C410.269 402.936 404.924 392.344 399.676 386.165Z" fill="#E0E0E0"/>
<path d="M356.803 455.664L355.584 455.322C349.769 453.687 343.709 457.086 342.063 462.9C340.427 468.715 343.826 474.776 349.641 476.422L350.86 476.764C356.674 478.399 362.735 475 364.381 469.185C366.016 463.371 362.617 457.31 356.803 455.664Z" fill="#E0E0E0"/>
<path d="M430.332 301.093C426.132 298.795 421.343 298.271 418.254 298.56C415.368 298.827 411.157 299.672 407.512 302.183C405.246 303.744 403.503 305.764 402.349 308.169C400.97 311.023 400.404 314.443 400.65 318.356C400.682 318.943 400.949 319.478 401.398 319.863C401.847 320.247 402.413 320.429 403.012 320.376L410.579 319.681C411.648 319.585 412.493 318.698 412.546 317.629C412.664 315.224 413.711 311.098 419.366 310.478C423.673 310.008 425.747 312.968 426.431 314.272C427.553 316.378 427.553 318.997 426.431 321.284C424.721 324.79 421.055 325.635 419.034 325.827C416.704 326.051 414.973 328.114 415.186 330.434L415.935 338.579C416.041 339.765 417.1 340.652 418.286 340.535L425.661 339.861C426.848 339.755 427.735 338.696 427.617 337.51L427.457 335.8C427.457 335.8 427.478 335.725 427.511 335.704C429.125 334.966 432.235 333.256 434.886 330.081C438.274 326.041 439.728 321.081 439.204 315.363C438.456 307.175 433.956 303.071 430.311 301.082L430.332 301.093Z" fill="#F5F5F5"/>
<path d="M422.529 342.234L421.888 342.299C418.799 342.576 416.522 345.323 416.8 348.402C417.078 351.48 419.825 353.768 422.904 353.49L423.545 353.426C426.634 353.148 428.911 350.401 428.633 347.322C428.355 344.233 425.608 341.956 422.529 342.234Z" fill="#F5F5F5"/>
<path d="M127.112 127.143C124.269 124.343 120.539 122.836 118.005 122.355C115.632 121.906 112.062 121.628 108.556 122.814C106.387 123.552 104.527 124.771 103.041 126.438C101.288 128.415 100.048 131.034 99.3533 134.219C99.2465 134.7 99.3427 135.181 99.6099 135.598C99.8771 136.004 100.305 136.282 100.786 136.379L107.017 137.554C107.894 137.715 108.781 137.202 109.059 136.357C109.7 134.455 111.485 131.376 116.156 132.178C119.726 132.787 120.699 135.63 120.955 136.828C121.372 138.773 120.784 140.879 119.363 142.461C117.193 144.887 114.061 144.727 112.383 144.417C110.459 144.064 108.599 145.325 108.246 147.238L106.985 153.951C106.803 154.934 107.445 155.875 108.428 156.057L114.499 157.2C115.483 157.382 116.423 156.741 116.605 155.757L116.872 154.346C116.872 154.346 116.904 154.282 116.936 154.282C118.401 154.058 121.287 153.395 124.141 151.46C127.775 148.991 130.073 145.347 130.96 140.633C132.232 133.888 129.549 129.58 127.08 127.143H127.112Z" fill="#F5F5F5"/>
<path d="M111.474 158.376L110.94 158.28C108.396 157.799 105.948 159.477 105.467 162.021C104.986 164.565 106.664 167.013 109.208 167.494L109.743 167.59C112.286 168.071 114.734 166.393 115.215 163.849C115.696 161.305 114.018 158.857 111.474 158.376Z" fill="#F5F5F5"/>
<path d="M419.055 129.292C414.865 126.972 410.077 126.438 406.988 126.705C404.102 126.962 399.89 127.785 396.235 130.286C393.958 131.846 392.216 133.856 391.051 136.25C389.661 139.094 389.073 142.525 389.308 146.426C389.34 147.014 389.608 147.548 390.056 147.933C390.505 148.318 391.072 148.5 391.66 148.457L399.238 147.794C400.307 147.698 401.151 146.822 401.216 145.753C401.344 143.348 402.402 139.222 408.067 138.634C412.385 138.185 414.438 141.156 415.122 142.45C416.233 144.566 416.223 147.185 415.1 149.462C413.379 152.957 409.713 153.791 407.682 153.983C405.352 154.197 403.61 156.26 403.813 158.579L404.529 166.735C404.636 167.921 405.684 168.808 406.881 168.702L414.256 168.06C415.442 167.953 416.33 166.906 416.223 165.709L416.073 163.998C416.073 163.998 416.094 163.924 416.126 163.902C417.751 163.165 420.862 161.465 423.534 158.312C426.933 154.282 428.408 149.333 427.906 143.615C427.189 135.417 422.711 131.301 419.066 129.292H419.055Z" fill="#EBEBEB"/>
<path d="M411.092 170.401L410.451 170.454C407.362 170.722 405.074 173.458 405.342 176.536C405.609 179.625 408.345 181.913 411.423 181.646L412.065 181.592C415.154 181.325 417.441 178.589 417.174 175.51C416.907 172.421 414.17 170.134 411.092 170.401Z" fill="#EBEBEB"/>
<path d="M191.33 375.594C186.082 373.125 180.256 372.847 176.547 373.414C173.074 373.948 168.05 375.274 163.828 378.587C161.209 380.65 159.253 383.205 158.024 386.208C156.57 389.757 156.132 393.936 156.72 398.639C156.805 399.345 157.169 399.965 157.735 400.403C158.302 400.83 159.007 401.012 159.713 400.905L168.809 399.516C170.091 399.323 171.053 398.19 171.032 396.897C171 393.979 171.951 388.923 178.749 387.758C183.923 386.882 186.638 390.302 187.568 391.82C189.075 394.289 189.278 397.453 188.102 400.296C186.296 404.657 181.935 405.95 179.498 406.335C176.697 406.773 174.762 409.403 175.19 412.193L176.686 421.984C176.9 423.416 178.247 424.399 179.679 424.175L188.54 422.817C189.973 422.604 190.956 421.257 190.731 419.824L190.421 417.772C190.421 417.772 190.443 417.676 190.486 417.655C192.388 416.639 196.022 414.341 198.994 410.322C202.788 405.192 204.178 399.099 203.12 392.215C201.613 382.371 195.873 377.753 191.319 375.605L191.33 375.594Z" fill="#EBEBEB"/>
<path d="M184.927 425.885L184.147 426.003C180.438 426.569 177.883 430.054 178.45 433.752C179.016 437.461 182.501 440.016 186.199 439.449L186.979 439.332C190.688 438.765 193.243 435.281 192.677 431.582C192.11 427.873 188.625 425.319 184.927 425.885Z" fill="#EBEBEB"/>
<path d="M111.538 190.314C104.163 186.862 95.9753 186.488 90.7699 187.289C85.8958 188.048 78.8412 189.93 72.9196 194.59C69.2426 197.487 66.5063 201.099 64.7854 205.311C62.7545 210.302 62.1453 216.181 62.979 222.787C63.1073 223.781 63.6096 224.658 64.4113 225.256C65.2129 225.865 66.207 226.111 67.2011 225.951L79.9849 223.973C81.7913 223.696 83.1274 222.114 83.106 220.286C83.0526 216.192 84.3887 209.073 93.9231 207.427C101.191 206.177 105.018 210.987 106.322 213.103C108.449 216.566 108.738 221.013 107.092 225C104.558 231.135 98.4338 232.963 95.0134 233.508C91.0799 234.128 88.3649 237.826 88.9742 241.749L91.1013 255.505C91.4112 257.515 93.3031 258.894 95.3126 258.584L107.765 256.649C109.775 256.339 111.153 254.447 110.843 252.438L110.395 249.552C110.384 249.488 110.416 249.413 110.48 249.381C113.152 247.959 118.24 244.72 122.409 239.055C127.732 231.83 129.666 223.268 128.17 213.605C126.032 199.785 117.952 193.307 111.549 190.304L111.538 190.314Z" fill="#EBEBEB"/>
<path d="M102.677 260.978L101.587 261.149C96.3815 261.961 92.8008 266.846 93.6024 272.062C94.4041 277.268 99.2996 280.849 104.516 280.047L105.606 279.876C110.811 279.063 114.392 274.179 113.59 268.963C112.778 263.757 107.893 260.176 102.677 260.978Z" fill="#EBEBEB"/>
<path d="M291.548 103.201L301.178 104.804C305.914 110.469 312.402 114.798 320.172 116.872C338.514 121.756 357.915 111.687 364.52 93.8906C372.152 73.336 360.501 50.6329 339.145 44.9679C321.017 40.1579 301.841 49.9168 295.032 67.4037C291.655 76.083 291.762 85.1578 294.583 93.2172V93.1958L291.537 103.211L291.548 103.201Z" fill="white"/>
<path d="M291.548 103.201C291.548 103.201 291.601 102.987 291.719 102.559C291.847 102.11 292.029 101.469 292.275 100.646C292.777 98.925 293.515 96.4025 294.477 93.1531L294.541 92.9286L294.68 93.121V93.1424L294.487 93.2493C292.948 88.8989 291.633 82.6887 292.734 75.3776C293.269 71.7327 294.434 67.8847 296.315 64.0581C298.228 60.2529 300.954 56.5332 304.481 53.3159C308.019 50.1092 312.37 47.437 317.297 45.6947C322.203 43.9631 327.708 43.0973 333.288 43.6959C338.867 44.2411 344.489 46.1009 349.524 49.2113C354.59 52.2897 358.909 56.8004 362.008 62.1234C363.644 64.7849 364.745 67.703 365.675 70.6103C365.888 71.3479 366.027 72.0961 366.198 72.8336C366.348 73.5818 366.583 74.3087 366.647 75.0676C366.744 75.8158 366.829 76.564 366.915 77.3122L367.043 78.4346L367.064 79.5569C367.278 85.5426 366.006 91.3894 363.676 96.5414C361.367 101.725 357.797 106.076 353.789 109.453C349.759 112.842 345.195 115.247 340.609 116.668C336.003 118.079 331.396 118.528 327.12 118.24C326.062 118.111 325.014 117.994 323.988 117.876C322.962 117.737 321.979 117.459 321.006 117.267C319.05 116.839 317.233 116.198 315.523 115.514C308.661 112.703 304.011 108.406 301.093 104.9L301.157 104.943C298.057 104.398 295.642 103.97 293.985 103.682C293.194 103.543 292.585 103.425 292.146 103.35C291.74 103.275 291.537 103.233 291.537 103.233C291.537 103.233 291.772 103.254 292.189 103.318C292.627 103.382 293.247 103.478 294.06 103.607C295.706 103.863 298.1 104.248 301.189 104.729H301.232L301.264 104.772C304.203 108.224 308.853 112.446 315.662 115.193C317.361 115.867 319.168 116.497 321.092 116.904C322.064 117.096 323.037 117.353 324.052 117.491C325.068 117.609 326.105 117.727 327.152 117.844C331.374 118.111 335.938 117.652 340.481 116.241C345.013 114.819 349.503 112.436 353.479 109.079C357.434 105.723 360.95 101.437 363.206 96.3276C365.482 91.2398 366.744 85.4785 366.519 79.589L366.498 78.4773L366.369 77.3764C366.284 76.6388 366.188 75.9013 366.102 75.1638C366.038 74.4156 365.803 73.6994 365.653 72.9726C365.482 72.2457 365.343 71.4975 365.13 70.7814C364.21 67.9168 363.131 65.0415 361.517 62.4227C358.47 57.1745 354.206 52.728 349.225 49.6923C344.265 46.6247 338.718 44.7969 333.234 44.2411C327.729 43.6425 322.31 44.4869 317.457 46.1864C312.594 47.8966 308.297 50.5261 304.791 53.6793C301.296 56.8539 298.592 60.5094 296.678 64.2612C294.797 68.0343 293.621 71.8503 293.076 75.4524C291.954 82.6994 293.205 88.8562 294.69 93.1958L294.958 93.9868L294.487 93.292V93.2706L294.68 93.2386C293.675 96.4452 292.905 98.925 292.371 100.625C292.104 101.458 291.901 102.1 291.762 102.549C291.623 102.987 291.537 103.211 291.537 103.211L291.548 103.201Z" fill="#263238"/>
<path d="M337.552 63.7695C334.698 61.8775 331.321 61.2255 329.108 61.2362C327.035 61.2469 323.988 61.5996 321.241 63.1709C319.531 64.1436 318.174 65.4797 317.201 67.1257C316.046 69.0711 315.437 71.4761 315.373 74.2766C315.373 74.6934 315.523 75.0889 315.811 75.3882C316.111 75.6875 316.506 75.8478 316.923 75.8478L322.353 75.8158C323.122 75.8158 323.774 75.2386 323.871 74.4797C324.095 72.7801 325.089 69.9048 329.151 69.8086C332.251 69.7338 333.533 71.9678 333.95 72.9298C334.624 74.501 334.463 76.3609 333.533 77.9215C332.101 80.3157 329.45 80.7005 327.997 80.7112C326.318 80.7326 324.972 82.1008 324.982 83.7575L325.025 89.6043C325.025 90.4594 325.731 91.1435 326.586 91.1435L331.877 91.1114C332.732 91.1114 333.416 90.406 333.416 89.5509V88.3217C333.416 88.3217 333.416 88.2682 333.459 88.2575C334.656 87.83 336.975 86.7932 339.049 84.6982C341.7 82.0259 343.036 78.5842 343.004 74.4797C342.961 68.6008 340.011 65.4155 337.531 63.7801L337.552 63.7695Z" fill="#FF725E"/>
<path d="M329.525 92.5759H329.065C326.852 92.5972 325.067 94.4036 325.078 96.6162C325.089 98.8288 326.906 100.614 329.119 100.603H329.578C331.791 100.582 333.576 98.7754 333.565 96.5628C333.554 94.3502 331.737 92.5652 329.525 92.5759Z" fill="#FF725E"/>
<path d="M344.276 151.386C319.04 134.412 289.036 128.362 269.369 128.362C250.952 128.362 223.845 131.269 199.314 145.101C184.083 153.694 171.919 165.441 163.186 180C152.84 197.251 147.228 218.597 146.533 243.438C146.426 247.168 147.805 250.695 150.413 253.368C153.032 256.061 156.538 257.547 160.3 257.547H208.592C215.412 257.547 221.269 252.459 222.221 245.725C224.358 230.579 233.348 205.086 269.487 204.456C297.021 203.985 308.372 223.909 311.985 232.503C317.853 246.484 316.368 263.062 307.998 276.862C295.15 298.047 271.507 301.296 258.563 301.339C243.673 301.392 231.563 313.481 231.563 328.286V380.255C231.563 387.844 237.741 394.022 245.33 394.022H292.382C299.971 394.022 306.149 387.844 306.149 380.255V369.341C306.149 369.074 306.309 368.85 306.566 368.764C317.223 365.023 337.884 355.991 356.493 337.489C380.255 313.866 392.29 283.382 392.29 246.88C392.29 194.643 366.188 166.115 344.298 151.396L344.276 151.386Z" fill="#FF725E"/>
<path d="M267.648 418.264H271.443C290.127 418.264 305.326 433.463 305.326 452.147C305.326 470.832 290.127 486.031 271.443 486.031H267.648C248.964 486.031 233.754 470.832 233.754 452.147C233.754 433.463 248.953 418.264 267.648 418.264Z" fill="#FF725E"/>
<path d="M245.128 404.069H292.158C299.747 404.069 305.915 398.094 305.915 390.74V369.491C305.915 369.234 306.075 369.021 306.332 368.935C311.89 367.043 319.671 363.58 328.468 358.171C298.422 357.958 243.642 357.658 231.371 358.097V390.74C231.371 398.094 237.539 404.069 245.128 404.069Z" fill="#263238"/>
<path d="M283.863 168.648L253.677 80.9999C247.307 59.0558 229.221 44.4762 207.459 51.4453L205.482 52.2043C185.622 59.8788 174.976 81.513 181.026 101.918C186.659 120.912 193.125 141.819 197.059 151.653C205.214 172.004 226.56 166.297 226.56 166.297C226.603 166.286 231.316 179.861 233.369 185.964L244.421 196.888L248.985 191.896L283.841 168.637L283.863 168.648Z" fill="#FFBF9D"/>
<path d="M226.57 166.307C226.57 166.307 239.76 162.085 250.161 148.147C250.161 148.147 249.69 165.997 228.569 172.047L226.57 166.318V166.307Z" fill="#FF9A6C"/>
<path d="M195.797 115.771C196.342 117.331 198.106 118.165 199.752 117.63C201.387 117.096 202.285 115.396 201.74 113.836C201.195 112.275 199.431 111.442 197.785 111.976C196.139 112.51 195.252 114.21 195.786 115.781L195.797 115.771Z" fill="#263238"/>
<path d="M188.539 108.288C189.052 108.534 190.624 106.033 193.777 104.825C196.898 103.575 199.837 104.301 200.03 103.788C200.137 103.553 199.495 103.008 198.213 102.666C196.941 102.324 194.985 102.26 193.029 103.03C191.073 103.799 189.704 105.157 189.042 106.258C188.358 107.369 188.304 108.192 188.55 108.288H188.539Z" fill="#263238"/>
<path d="M222.081 105.349C222.594 105.595 224.176 103.094 227.318 101.897C230.44 100.646 233.379 101.373 233.571 100.86C233.668 100.625 233.037 100.079 231.754 99.7374C230.482 99.3953 228.526 99.3312 226.57 100.101C224.614 100.87 223.246 102.228 222.583 103.329C221.91 104.44 221.846 105.264 222.081 105.36V105.349Z" fill="#263238"/>
<path d="M217.689 125.626C217.635 125.444 215.551 125.861 212.227 126.673C211.393 126.898 210.57 127.037 210.228 126.534C209.811 126.032 209.811 125.038 209.843 123.948C209.843 121.714 209.843 119.373 209.854 116.914C209.79 106.942 209.416 98.8609 209.009 98.8716C208.603 98.8716 208.336 106.974 208.4 116.946C208.432 119.394 208.464 121.735 208.507 123.969C208.56 124.995 208.432 126.235 209.309 127.282C209.758 127.796 210.516 128.009 211.083 127.945C211.66 127.902 212.109 127.742 212.515 127.603C215.765 126.545 217.753 125.797 217.689 125.615V125.626Z" fill="#263238"/>
<path d="M214.813 87.6804C215.55 88.3218 218.276 86.2909 221.953 84.7838C225.608 83.1911 228.954 82.646 229.007 81.6733C229.018 81.2137 228.11 80.7327 226.56 80.5938C225.01 80.4441 222.819 80.7007 220.617 81.6306C218.415 82.5605 216.705 83.9501 215.732 85.1686C214.748 86.3871 214.46 87.3705 214.802 87.6804H214.813Z" fill="#263238"/>
<path d="M184.821 99.1067C185.74 99.577 188.038 97.8882 191.127 96.7124C194.174 95.4405 197.017 95.0877 197.348 94.1151C197.476 93.6554 196.803 93.0889 195.403 92.8324C194.024 92.5759 191.929 92.7148 189.823 93.5592C187.718 94.4037 186.114 95.7291 185.313 96.8621C184.49 98.0058 184.404 98.8716 184.821 99.1174V99.1067Z" fill="#263238"/>
<path d="M257.525 95.8039C257.814 95.5153 269.978 86.216 274.927 100.379C279.886 114.531 264.644 116.594 264.484 116.198C264.313 115.803 257.525 95.8146 257.525 95.8146V95.8039Z" fill="#FFBF9D"/>
<path d="M266.931 109.315C266.973 109.25 267.241 109.4 267.722 109.443C268.192 109.486 268.94 109.368 269.582 108.834C270.886 107.765 271.313 104.943 270.49 102.367C270.073 101.063 269.378 99.9298 268.566 99.0747C267.775 98.1875 266.845 97.7065 266.044 97.8348C265.231 97.9203 264.857 98.5616 264.825 99.0212C264.772 99.4808 264.964 99.7374 264.9 99.7801C264.868 99.8336 264.515 99.6519 264.419 99.0212C264.376 98.7219 264.419 98.3265 264.665 97.9417C264.911 97.5462 265.359 97.2255 265.905 97.1079C267.027 96.798 268.352 97.4607 269.25 98.4013C270.201 99.3205 271.025 100.582 271.484 102.046C272.393 104.932 271.869 108.107 270.03 109.421C269.122 110.031 268.192 110.02 267.647 109.838C267.091 109.646 266.899 109.357 266.941 109.304L266.931 109.315Z" fill="#FF9A6C"/>
<path d="M228.367 124.204C227.864 124.343 228.955 127.603 226.934 130.863C224.925 134.123 221.323 134.925 221.44 135.385C221.462 135.609 222.424 135.759 223.909 135.31C225.363 134.882 227.319 133.706 228.548 131.718C229.778 129.73 229.874 127.582 229.542 126.203C229.211 124.792 228.57 124.108 228.356 124.204H228.367Z" fill="#263238"/>
<path d="M145.689 91.9879C145.625 91.0794 145.988 90.1815 146.576 89.4761C147.859 87.9476 149.772 87.4131 151.568 86.7504C156.036 85.0937 160.076 82.3787 163.368 78.9369C161.722 78.7231 160.119 78.317 158.622 77.6115C155.533 76.1364 152.989 73.1115 152.957 69.6804C152.957 69.0391 153.075 68.3229 153.588 67.9381C154.411 67.3289 155.533 67.9488 156.421 68.4405C159.36 70.0545 161.658 70.3752 164.694 68.9536C166.575 68.0664 168.317 66.9654 169.514 65.469C169.557 65.3835 169.578 65.298 169.621 65.2125C170.092 64.197 170.551 63.2137 171.011 62.2624C174.474 55.1116 177.766 49.842 181.806 46.2826C187.728 41.0665 198.887 35.8717 206.754 35.2197C214.621 34.5677 223.151 38.1377 226.753 45.1603C229.585 40.3182 235.657 38.2125 241.279 38.4584L241.386 38.3622C247.553 38.3836 252.705 43.076 256.286 48.089C256.478 48.3669 256.671 48.6448 256.863 48.9227C259.749 51.2101 263.159 52.8348 266.772 53.5296C267.413 53.6472 268.151 53.8182 268.429 54.4061C268.706 54.9833 268.375 55.6674 268.001 56.1911C267.018 57.5914 265.703 58.7564 264.217 59.6009C265.19 60.7552 266.227 61.8348 267.392 62.8075C268.375 63.6412 269.551 64.6353 269.401 65.9073C269.284 66.9013 268.332 67.6175 267.349 67.8099C266.366 68.0023 265.361 67.7778 264.388 67.5533C265.511 68.8039 266.644 70.0438 267.766 71.2944C265.906 72.3419 263.8 72.8977 261.663 72.9939C262.336 78.6269 264.869 88.6103 264.773 92.6293C261.043 94.0188 259.984 93.9333 258.317 95.2267C256.158 96.9048 258.616 100.913 254.993 100.806C253.144 100.753 248.494 95.4725 247.361 94.0188C239.889 84.3241 234.556 72.9939 231.819 61.0545C228.698 59.4405 225.267 58.4251 221.761 58.0937L222.082 58.2327C215.594 58.2648 208.347 58.5961 203.815 63.2351C200.298 66.8372 199.357 72.1388 197.412 76.7885C193.735 85.596 188.166 91.5711 179.305 95.1198C180.695 101.651 184.051 111.944 185.804 117.887L176.719 107.978V108.032C176.088 107.487 175.511 106.92 174.955 106.343L174.773 106.172V106.151C173.865 105.221 172.988 104.28 171.962 103.414C171.951 103.436 171.941 103.457 171.919 103.489C169.739 107.391 163.593 104.772 164.886 100.496C165.143 99.6518 165.517 98.8395 166.019 98.102C165.057 99.9618 163.133 101.373 161.038 101.458C158.943 101.544 156.795 100.144 156.271 98.1126C155.907 96.7231 156.442 95.1839 157.479 94.2219C154.999 95.3122 152.198 95.6756 149.526 95.1946C147.773 94.8739 145.86 94.0081 145.71 92.0093L145.689 91.9879Z" fill="#263238"/>
<path d="M221.067 49.8313C221.045 49.8954 222.125 50.0771 223.814 50.9964C225.481 51.9156 227.651 53.7862 229.415 56.747C230.302 58.2113 231.125 59.9109 231.798 61.8241C232.482 63.7268 233.049 65.8218 233.658 68.0237C234.278 70.2256 234.919 72.5557 235.892 74.8645C236.373 76.0189 236.94 77.1733 237.624 78.2849C238.297 79.3752 239.056 80.5403 240.307 81.2457C241.311 81.8229 242.626 81.7695 243.577 81.203C244.55 80.6578 245.277 79.7814 245.683 78.7873C246.463 76.7671 246.1 74.6721 245.822 72.8229L245.405 73.026C246.666 74.3407 247.938 75.6234 249.456 76.4785C250.953 77.3443 252.716 77.6436 254.255 77.2481C255.025 77.0557 255.731 76.6709 256.254 76.1258C256.799 75.5807 257.077 74.8752 257.206 74.1911C257.312 73.4963 257.248 72.8016 257.002 72.203C256.746 71.6044 256.308 71.102 255.773 70.8241L255.624 71.102C257.858 72.3526 259.888 72.7374 261.246 72.8764C261.93 72.9405 262.454 72.9405 262.817 72.9298C263.17 72.9085 263.352 72.8978 263.352 72.8764C263.352 72.8657 263.17 72.855 262.817 72.8443C262.464 72.8229 261.941 72.8016 261.267 72.716C259.931 72.5343 257.943 72.1068 255.784 70.8455L255.634 71.1234C256.596 71.6151 257.088 72.8978 256.853 74.1484C256.735 74.7683 256.468 75.3989 255.987 75.8799C255.517 76.3609 254.865 76.703 254.159 76.874C252.738 77.216 251.092 76.9381 249.691 76.1044C248.259 75.2814 247.019 74.0308 245.769 72.716L245.234 72.1602L245.352 72.9298C245.63 74.779 245.95 76.7992 245.223 78.627C244.86 79.5141 244.187 80.3051 243.342 80.7861C242.498 81.2778 241.429 81.3205 240.563 80.8289C239.473 80.2303 238.735 79.1293 238.073 78.0498C237.41 76.9702 236.854 75.8372 236.373 74.7042C235.411 72.4275 234.759 70.1187 234.128 67.9275C233.508 65.7256 232.921 63.6306 232.215 61.7066C231.52 59.7826 230.655 58.0617 229.746 56.5866C227.918 53.6044 225.663 51.7339 223.931 50.8467C222.189 49.9596 221.088 49.8527 221.088 49.8527L221.067 49.8313Z" fill="#455A64"/>
<path d="M164.116 92.5438C164.116 92.5438 164.191 92.5758 164.33 92.6293C164.501 92.6827 164.715 92.7468 164.982 92.8217C165.271 92.9072 165.623 93.0034 166.062 93.0782C166.489 93.153 166.991 93.2599 167.558 93.3027C169.803 93.5378 173.202 93.3561 176.985 91.7742C180.727 90.2136 184.831 87.2421 187.856 82.7528C190.945 78.317 193.029 72.6626 194.227 66.602C194.846 63.5664 195.167 60.5628 195.691 57.7089C196.193 54.855 196.909 52.1401 198.096 49.7778C199.261 47.4049 200.864 45.3954 202.788 44.0593C203.74 43.3752 204.776 42.9263 205.803 42.5843C206.839 42.2743 207.887 42.146 208.881 42.1246C210.88 42.0926 212.665 42.5736 214.118 43.2042C215.572 43.8455 216.694 44.6579 217.528 45.4061C219.142 46.9774 219.623 48.1852 219.687 48.1317C219.687 48.1317 219.666 48.0569 219.591 47.918C219.506 47.7576 219.399 47.5546 219.27 47.3194C218.971 46.7956 218.447 46.0795 217.656 45.2565C216.833 44.4762 215.711 43.6104 214.236 42.9263C212.761 42.2529 210.944 41.7398 208.881 41.7505C207.855 41.7505 206.775 41.8895 205.696 42.1995C204.627 42.5308 203.526 43.0011 202.542 43.6959C200.544 45.0748 198.876 47.1377 197.668 49.5534C196.439 51.969 195.712 54.7374 195.189 57.6127C194.665 60.488 194.333 63.4809 193.713 66.4951C192.527 72.5129 190.475 78.1032 187.45 82.4856C184.5 86.9214 180.502 89.8502 176.825 91.4321C173.127 93.0355 169.781 93.2706 167.558 93.0996C165.313 92.9179 164.127 92.4796 164.105 92.5438H164.116Z" fill="#455A64"/>
<path d="M159.019 84.1104C159.019 84.1104 159.339 84.2386 159.948 84.3669C160.547 84.5058 161.434 84.6341 162.546 84.7089C163.647 84.7944 164.972 84.7731 166.426 84.6234C167.88 84.4524 169.472 84.1531 171.086 83.6507C172.7 83.127 174.175 82.4643 175.458 81.7695C176.73 81.0427 177.831 80.3051 178.686 79.5997C179.541 78.9049 180.204 78.2849 180.61 77.8253C181.027 77.3657 181.241 77.1092 181.219 77.0878C181.155 77.0237 180.214 78.007 178.461 79.3111C177.596 79.9738 176.495 80.6686 175.233 81.3526C173.961 82.0153 172.508 82.6567 170.926 83.1591C169.344 83.6507 167.794 83.9607 166.362 84.1531C164.929 84.3241 163.636 84.3776 162.546 84.3455C160.365 84.2814 159.029 84.0142 159.008 84.1104H159.019Z" fill="#455A64"/>
<path d="M197.786 232.279C197.604 232.332 200.02 244.464 202.393 257.055H203.141C200.768 244.475 197.968 232.225 197.775 232.279H197.786Z" fill="#263238"/>
<path d="M208.027 257.654C214.889 257.654 221.206 252.716 222.158 245.982C224.317 230.857 232.943 205.268 269.317 204.637C297.033 204.167 308.694 223.781 311.965 232.503C317.149 246.356 316.508 263.159 308.085 276.936C295.152 298.09 271.358 301.328 258.318 301.382C243.332 301.435 231.136 313.503 231.136 328.286V384.787L306.204 383.376V369.277C306.204 369.021 306.364 368.785 306.621 368.7C315.76 365.515 330.264 359.486 346.575 346.328L341.691 281.255C341.691 281.255 355.982 253.795 355.265 247.617C348.799 191.18 329.602 159.242 321.799 156.26C313.045 152.914 279.225 154.55 279.225 154.55C279.225 154.55 264.614 181.614 244.123 184.607C232.718 186.274 228.56 172.036 228.56 172.036L202.073 187.567C183.229 197.08 179.563 234.064 179.221 257.654H208.006H208.027Z" fill="url(#paint0_linear_7_5466)"/>
<g opacity="0.3">
<path d="M295.023 290.907C310.158 294.755 325.069 299.629 340.204 303.487C341.327 303.776 342.524 304.107 343.283 304.984C344.394 306.277 344.149 308.233 343.646 309.858C342.054 315.063 338.622 319.553 334.539 323.144C331.247 326.041 327.303 328.478 322.931 328.82C318.068 329.205 313.386 326.939 309.271 324.32C298.753 317.607 289.775 307.795 284.131 296.668C284.131 296.668 287.68 295.204 290.394 293.761C292.917 292.414 295.023 290.917 295.023 290.917V290.907Z" fill="black"/>
</g>
<path d="M311.664 232.899C317.714 246.858 316.186 263.415 307.56 277.193C302.771 284.835 296.679 290.287 290.041 293.953C297.203 301.734 304.46 308.597 311.643 313.695C319.371 319.179 337.189 317.618 343.945 305.615C352.282 290.8 352.977 252.951 352.977 252.951L354.559 230.13L307.955 222.99L307.581 224.273C309.58 227.266 310.756 230.804 311.675 232.899H311.664Z" fill="#FFBF9D"/>
<path d="M230.516 223.311L227.865 227.49C225.845 228.88 223.932 228.121 222.681 225.534L193.992 181.87L200.983 177.424L232.664 219.292C232.664 219.292 233.113 221.515 230.516 223.3V223.311Z" fill="#455A64"/>
<path d="M164.245 181.133C158.633 177.958 153.92 173.073 151.002 166.788C147.41 159.05 147.047 150.381 149.986 142.364C152.915 134.358 158.794 127.967 166.532 124.375C182.502 116.968 201.528 123.926 208.946 139.906C212.537 147.645 212.901 156.313 209.961 164.33C207.032 172.336 201.154 178.728 193.415 182.319C183.72 186.819 172.903 186.017 164.245 181.133ZM194.644 127.432C186.563 122.868 176.473 122.13 167.43 126.32C160.215 129.666 154.732 135.63 151.996 143.102C149.259 150.573 149.601 158.665 152.947 165.89C156.293 173.105 162.257 178.589 169.728 181.325C177.2 184.061 185.291 183.719 192.517 180.374C199.732 177.028 205.215 171.064 207.952 163.592C210.688 156.121 210.346 148.029 207 140.804C204.285 134.946 199.882 130.382 194.644 127.421V127.432Z" fill="#263238"/>
<path d="M165.603 179.786C159.991 176.611 155.277 171.726 152.359 165.441C148.768 157.703 148.404 149.034 151.344 141.018C154.272 133.012 160.151 126.62 167.89 123.028C183.859 115.621 202.885 122.579 210.303 138.559C213.895 146.298 214.258 154.966 211.319 162.983C208.39 170.989 202.511 177.381 194.772 180.972C185.078 185.472 174.26 184.671 165.603 179.786ZM196.001 126.085C187.921 121.521 177.831 120.784 168.788 124.974C161.573 128.319 156.089 134.284 153.353 141.755C150.617 149.227 150.959 157.318 154.304 164.544C157.65 171.759 163.614 177.242 171.086 179.978C178.557 182.715 186.649 182.373 193.874 179.027C201.089 175.681 206.573 169.717 209.309 162.246C212.045 154.774 211.703 146.683 208.358 139.457C205.643 133.599 201.239 129.035 196.001 126.075V126.085Z" fill="#455A64"/>
<path d="M207.888 152.455C207.888 152.455 207.866 152.273 207.856 151.931C207.834 151.589 207.866 151.076 207.791 150.434C207.717 149.141 207.428 147.26 206.733 145.047C206.391 143.936 205.91 142.76 205.333 141.52C204.713 140.301 204.029 139.008 203.153 137.747C202.287 136.475 201.303 135.192 200.149 133.984C199.005 132.766 197.744 131.579 196.312 130.532C194.89 129.474 193.394 128.597 191.887 127.881C190.369 127.186 188.84 126.662 187.365 126.256C184.383 125.508 181.604 125.305 179.284 125.433C176.965 125.562 175.105 125.925 173.854 126.278C173.213 126.417 172.743 126.609 172.411 126.695C172.08 126.791 171.909 126.844 171.898 126.834C171.898 126.823 172.059 126.759 172.379 126.63C172.711 126.524 173.17 126.31 173.812 126.149C175.062 125.754 176.922 125.358 179.263 125.198C181.604 125.027 184.426 125.209 187.44 125.957C188.936 126.352 190.486 126.876 192.025 127.582C193.554 128.298 195.072 129.196 196.515 130.265C197.958 131.323 199.24 132.531 200.384 133.771C201.539 135 202.533 136.293 203.398 137.586C204.286 138.858 204.959 140.173 205.579 141.413C206.145 142.674 206.626 143.871 206.947 144.994C207.62 147.238 207.877 149.141 207.909 150.445C207.962 151.097 207.909 151.61 207.909 151.952C207.898 152.294 207.888 152.476 207.877 152.476L207.888 152.455Z" fill="white"/>
<path d="M174.57 178.45C174.592 178.375 176.056 178.909 178.514 179.251C178.824 179.283 179.145 179.326 179.476 179.369C179.808 179.412 180.161 179.412 180.524 179.433C181.251 179.497 182.031 179.454 182.843 179.433C184.479 179.337 186.264 179.091 188.092 178.61C189.919 178.108 191.587 177.424 193.051 176.686C193.767 176.291 194.462 175.927 195.061 175.51C195.36 175.307 195.67 175.125 195.937 174.933C196.204 174.73 196.461 174.538 196.718 174.345C198.674 172.817 199.668 171.62 199.721 171.673C199.742 171.684 199.486 171.983 199.026 172.507C198.802 172.774 198.503 173.084 198.139 173.415C197.776 173.747 197.38 174.163 196.867 174.527C196.621 174.719 196.365 174.922 196.098 175.136C195.83 175.35 195.52 175.532 195.221 175.745C194.623 176.173 193.928 176.547 193.201 176.964C191.726 177.723 190.037 178.428 188.188 178.941C186.339 179.433 184.522 179.668 182.865 179.754C182.031 179.754 181.251 179.786 180.513 179.722C180.15 179.69 179.786 179.69 179.455 179.636C179.113 179.583 178.792 179.54 178.482 179.497C177.862 179.422 177.307 179.273 176.826 179.166C176.334 179.07 175.928 178.941 175.596 178.824C174.934 178.61 174.57 178.471 174.581 178.45H174.57Z" fill="white"/>
<path d="M196.535 158.002C196.471 158.066 192.302 153.898 187.236 148.692C182.169 143.487 178.118 139.211 178.182 139.147C178.247 139.083 182.415 143.251 187.482 148.457C192.548 153.662 196.599 157.938 196.535 158.002Z" fill="white"/>
<path d="M191.62 166.361C191.62 166.361 191.502 166.265 191.321 166.061C191.107 165.826 190.84 165.538 190.498 165.174C189.771 164.362 188.755 163.24 187.526 161.861C185.014 159.06 181.54 155.202 177.65 150.99C173.759 146.768 170.2 142.995 167.613 140.259C166.341 138.912 165.304 137.822 164.556 137.02C164.214 136.656 163.947 136.357 163.733 136.133C163.551 135.93 163.455 135.812 163.466 135.801C163.466 135.801 163.583 135.887 163.786 136.079C164.011 136.293 164.299 136.582 164.652 136.924C165.4 137.661 166.48 138.741 167.795 140.088C170.424 142.77 174.016 146.533 177.906 150.755C181.797 154.977 185.249 158.857 187.708 161.7C188.937 163.122 189.931 164.276 190.605 165.089C190.925 165.474 191.171 165.784 191.374 166.019C191.545 166.232 191.631 166.35 191.62 166.361Z" fill="white"/>
<g opacity="0.3">
<path d="M165.582 127.25L204.788 169.845C204.788 169.845 201.614 174.281 198.706 176.216L158.666 132.627C158.666 132.627 161.552 129.153 165.571 127.25H165.582Z" fill="white"/>
</g>
<g opacity="0.3">
<path d="M155.309 137.533L193.874 179.027C193.874 179.027 194.227 179.219 191.576 179.893L154.219 139.639C154.219 139.639 154.411 138.634 155.309 137.533Z" fill="white"/>
</g>
<path d="M256.82 206.005C248.579 199.389 228.398 183.217 227.479 182.779C226.314 182.234 208.549 175.927 205.15 177.947C201.751 179.978 192.623 191.426 192.623 191.426C192.623 191.426 193.489 198.545 201.452 193.446C207.523 189.555 208.464 188.957 208.571 188.882H208.56L217.026 190.859C217.026 190.859 206.711 195.167 204.52 197.433C202.339 199.699 198.887 208.378 201.035 210.377C203.184 212.376 205.685 212.547 205.685 212.547C205.685 212.547 201.42 218.597 208.977 222.252C208.977 222.252 210.078 227.34 213.808 229.328C217.539 231.317 224.476 230.622 224.476 230.622C224.476 230.622 227.693 228.719 225.299 225.555C222.904 222.402 218.49 221.964 218.49 221.964L223.963 218.768C223.963 218.768 226.806 219.644 231.028 222.894C231.028 222.894 236.02 216.502 241.011 212.889C246.612 208.838 256.82 205.984 256.82 205.984V206.005Z" fill="#FFBF9D"/>
<path d="M221.804 208.688C221.804 208.688 221.516 208.667 220.992 208.731C220.468 208.795 219.731 208.945 218.833 209.234C217.048 209.789 214.664 211.029 212.697 213.156C210.741 215.283 209.704 217.774 209.298 219.591C209.084 220.51 208.999 221.258 208.978 221.782C208.956 222.306 208.978 222.595 208.999 222.595C209.074 222.595 209.095 221.44 209.576 219.655C210.046 217.881 211.094 215.487 212.997 213.424C214.899 211.35 217.197 210.11 218.929 209.501C220.66 208.87 221.826 208.753 221.804 208.678V208.688Z" fill="#FF9A6C"/>
<path d="M222.167 199.485C222.167 199.485 221.857 199.485 221.301 199.549C221.023 199.582 220.681 199.624 220.296 199.71C219.911 199.795 219.462 199.87 218.981 200.02C218.009 200.276 216.886 200.693 215.678 201.26C214.492 201.848 213.22 202.596 212.001 203.526C210.794 204.466 209.746 205.503 208.87 206.497C208.015 207.513 207.32 208.496 206.828 209.373C206.561 209.8 206.368 210.206 206.187 210.57C206.005 210.922 205.866 211.243 205.77 211.5C205.567 212.023 205.46 212.312 205.492 212.323C205.567 212.355 206.016 211.2 207.074 209.522C207.598 208.678 208.303 207.737 209.158 206.743C210.035 205.77 211.061 204.766 212.258 203.846C213.455 202.938 214.834 201.901 215.999 201.313C217.175 200.736 218.115 200.586 219.067 200.298C220.959 199.71 222.188 199.56 222.177 199.485H222.167Z" fill="#FF9A6C"/>
<path d="M223.717 188.914C223.717 188.914 223.3 188.7 222.562 188.658C221.836 188.604 220.799 188.722 219.762 189.16C218.351 189.758 217.859 190.346 217.453 190.827C216.983 191.394 216.801 191.811 216.844 191.832C216.94 191.918 217.924 190.357 219.922 189.523C221.9 188.658 223.717 189.032 223.717 188.914Z" fill="#FF9A6C"/>
<path d="M318.538 155.415C318.538 155.415 344.608 157.917 352.881 180.566C359.455 198.545 363.014 252.406 361.368 253.496L315.342 252.021C314.733 238.884 311.195 228.762 306.246 222.21L318.538 155.405V155.415Z" fill="url(#paint1_linear_7_5466)"/>
<path d="M316.047 252.031C316.047 252.031 316.389 252.181 316.955 252.534C317.522 252.887 318.313 253.432 319.264 254.137C321.178 255.537 323.711 257.643 326.265 260.219C328.831 262.784 330.926 265.318 332.369 267.199C333.085 268.14 333.651 268.92 334.015 269.476C334.389 270.031 334.571 270.341 334.549 270.363C334.485 270.416 333.577 269.262 332.069 267.445C330.562 265.628 328.425 263.159 325.881 260.604C323.337 258.049 320.868 255.922 319.029 254.447C317.191 252.972 316.004 252.106 316.058 252.031H316.047Z" fill="#FF9A6C"/>
<path d="M310.564 196.631C310.714 196.653 309.869 202.403 308.683 209.469C307.486 216.534 306.395 222.242 306.246 222.22C306.096 222.199 306.94 216.448 308.138 209.383C309.335 202.318 310.425 196.61 310.575 196.631H310.564Z" fill="black"/>
<path d="M252.641 358.139C252.641 358.139 252.897 358.086 253.41 358.022C253.966 357.968 254.704 357.893 255.612 357.797C257.59 357.616 260.337 357.348 263.704 357.028C270.534 356.376 279.972 355.382 290.361 354.078C300.751 352.763 310.136 351.363 316.923 350.304C320.269 349.77 322.994 349.342 324.95 349.032C325.859 348.893 326.586 348.787 327.142 348.701C327.644 348.626 327.911 348.605 327.911 348.626C327.911 348.648 327.655 348.712 327.163 348.819C326.618 348.926 325.891 349.075 324.993 349.257C323.112 349.631 320.376 350.123 316.987 350.711C310.221 351.876 300.836 353.329 290.436 354.655C280.036 355.969 270.587 356.889 263.746 357.445C260.326 357.722 257.547 357.926 255.633 358.032C254.714 358.086 253.987 358.118 253.421 358.15C252.919 358.171 252.651 358.171 252.651 358.15L252.641 358.139Z" fill="#263238"/>
<path d="M248.568 351.256C248.568 351.256 249.242 351.16 250.46 351.085C251.775 351.01 253.517 350.925 255.634 350.807C260.091 350.583 266.087 350.273 272.714 349.93C279.341 349.546 285.338 349.204 289.795 348.936C291.911 348.819 293.654 348.723 294.968 348.648C296.187 348.584 296.871 348.573 296.871 348.616C296.871 348.658 296.198 348.744 294.979 348.872C293.761 349.001 291.997 349.161 289.816 349.343C285.455 349.706 279.416 350.134 272.736 350.497C266.066 350.86 260.016 351.096 255.634 351.213C253.442 351.277 251.668 351.309 250.449 351.309C249.22 351.309 248.547 351.309 248.547 351.267L248.568 351.256Z" fill="#263238"/>
<path d="M175.265 253.806C175.436 253.154 175.714 252.534 176.099 251.978C176.868 250.877 178.033 250.033 179.359 249.733C181.55 249.231 184.008 250.257 185.195 252.171C185.12 250.717 186.264 249.349 187.675 248.964C189.086 248.579 190.176 249.124 191.298 250.054C192.42 250.984 192.709 251.732 193.169 253.111C194.291 250.589 200.052 250.899 200.758 252.79C200.758 252.79 205.717 247.361 208.251 250.033C209.309 251.144 208.849 252.844 208.154 254.543C207.224 256.82 206.604 257.771 205.386 260.273L200.694 260.529C200.298 262.004 199.464 267.979 199.293 269.486C199.122 270.993 198.812 272.533 198.011 273.826C197.209 275.119 195.809 276.135 194.291 276.113C192.773 276.092 191.266 274.788 191.362 273.27C191.042 274.521 190.507 275.761 189.577 276.669C188.647 277.578 187.279 278.102 186.029 277.77C184.778 277.439 183.784 276.135 184.03 274.863C182.352 276.017 179.882 274.991 178.814 273.26C177.755 271.517 177.723 269.358 177.787 267.327C177.841 265.521 178.012 263.501 177.296 261.79C177.189 261.523 176.986 261.288 176.922 260.999C176.825 260.572 176.89 260.091 176.858 259.663C176.793 258.712 176.622 257.771 176.291 256.884C176.216 256.692 176.141 256.499 176.056 256.307C175.831 255.805 175.489 255.377 175.233 254.885C175.179 254.779 175.126 254.672 175.115 254.554C175.083 254.308 175.19 254.03 175.254 253.806H175.265Z" fill="#FFBF9D"/>
<path d="M169.974 251.198C168.723 251.155 167.355 251.412 166.511 252.352C165.517 253.464 165.292 256.115 165.399 257.6C167.142 257.932 168.071 257.536 169.803 257.868C170.166 257.932 170.476 257.846 170.776 258.06C171.577 258.627 171.449 260.551 171.77 261.48C172.326 263.094 174.399 263.885 175.992 263.287C177.595 262.699 178.621 260.989 178.707 259.289C178.792 257.579 178.033 255.912 176.943 254.608C175.222 252.566 172.625 251.294 169.963 251.198H169.974Z" fill="#FFBF9D"/>
<path d="M199.615 267.007C199.433 266.964 200.149 263.789 200.609 259.824C200.823 257.846 200.876 256.04 200.801 254.736C200.737 253.432 200.577 252.641 200.662 252.619C200.726 252.598 201.015 253.378 201.186 254.704C201.368 256.018 201.379 257.878 201.154 259.888C200.94 261.897 200.566 263.693 200.256 264.976C199.946 266.258 199.69 267.039 199.615 267.017V267.007Z" fill="#FF9A6C"/>
<path d="M191.137 273.847C191.062 273.826 191.255 272.672 191.607 270.812C191.949 268.952 192.42 266.376 192.783 263.522C193.147 260.668 193.275 258.06 193.232 256.179C193.2 254.298 193.072 253.132 193.157 253.122C193.221 253.111 193.499 254.265 193.628 256.168C193.767 258.071 193.702 260.711 193.339 263.597C192.976 266.483 192.43 269.048 191.992 270.897C191.554 272.746 191.212 273.869 191.137 273.847Z" fill="#FF9A6C"/>
<path d="M183.966 275.066C183.88 275.045 184.18 273.762 184.554 271.688C184.928 269.615 185.345 266.718 185.526 263.511C185.697 260.294 185.601 257.376 185.452 255.27C185.302 253.165 185.152 251.861 185.238 251.85C185.281 251.85 185.355 252.16 185.473 252.748C185.591 253.336 185.719 254.18 185.847 255.238C186.093 257.355 186.253 260.294 186.082 263.543C185.901 266.793 185.42 269.7 184.939 271.774C184.703 272.811 184.479 273.644 184.297 274.211C184.116 274.777 184.009 275.087 183.966 275.077V275.066Z" fill="#FF9A6C"/>
<path d="M174.516 254.137C174.537 254.084 175.157 254.255 175.98 254.875C176.793 255.484 177.776 256.574 178.353 258.049C178.931 259.514 178.973 261.01 178.674 262.015C178.364 263.052 177.712 263.404 177.691 263.34C177.627 263.276 178.108 262.859 178.289 261.919C178.471 260.999 178.375 259.621 177.84 258.252C177.306 256.884 176.44 255.826 175.724 255.174C175.008 254.511 174.473 254.212 174.516 254.137Z" fill="#FF9A6C"/>
</g>
<defs>
<linearGradient id="paint0_linear_7_5466" x1="179.242" y1="269.476" x2="355.308" y2="269.476" gradientUnits="userSpaceOnUse">
<stop stopColor="#5153FA"/>
<stop offset="1" stopColor="#4344DC"/>
</linearGradient>
<linearGradient id="paint1_linear_7_5466" x1="306.246" y1="204.456" x2="361.774" y2="204.456" gradientUnits="userSpaceOnUse">
<stop stopColor="#5153FA"/>
<stop offset="1" stopColor="#4344DC"/>
</linearGradient>
<clipPath id="clip0_7_5466">
<rect width="520" height="512.817" fill="white"/>
</clipPath>
</defs>
</svg>
