<svg width="94" height="16" viewBox="0 0 94 16" fill="none" xmlns="http://www.w3.org/2000/svg">
<path d="M92.4844 8.35355C92.6797 8.15829 92.6797 7.84171 92.4844 7.64645L89.3024 4.46447C89.1072 4.2692 88.7906 4.2692 88.5953 4.46447C88.4001 4.65973 88.4001 4.97631 88.5953 5.17157L91.4238 8L88.5953 10.8284C88.4001 11.0237 88.4001 11.3403 88.5953 11.5355C88.7906 11.7308 89.1072 11.7308 89.3024 11.5355L92.4844 8.35355ZM0.130859 8.5H1.13086V7.5H0.130859V8.5ZM3.13086 8.5H5.13086V7.5H3.13086V8.5ZM7.13086 8.5H9.13086V7.5H7.13086V8.5ZM11.1309 8.5H13.1309V7.5H11.1309V8.5ZM15.1309 8.5H17.1309V7.5H15.1309V8.5ZM19.1309 8.5H21.1309V7.5H19.1309V8.5ZM23.1309 8.5H25.1309V7.5H23.1309V8.5ZM27.1309 8.5H29.1309V7.5H27.1309V8.5ZM31.1309 8.5H33.1309V7.5H31.1309V8.5ZM35.1309 8.5H37.1309V7.5H35.1309V8.5ZM39.1309 8.5H41.1309V7.5H39.1309V8.5ZM43.1309 8.5H45.1309V7.5H43.1309V8.5ZM47.1309 8.5H49.1309V7.5H47.1309V8.5ZM51.1309 8.5H53.1309V7.5H51.1309V8.5ZM55.1309 8.5H57.1309V7.5H55.1309V8.5ZM59.1309 8.5H61.1309V7.5H59.1309V8.5ZM63.1309 8.5H65.1309V7.5H63.1309V8.5ZM67.1309 8.5H69.1309V7.5H67.1309V8.5ZM71.1309 8.5H73.1309V7.5H71.1309V8.5ZM75.1309 8.5H77.1309V7.5H75.1309V8.5ZM79.1309 8.5H81.1309V7.5H79.1309V8.5ZM83.1309 8.5H85.1309V7.5H83.1309V8.5ZM87.1309 8.5H89.1309V7.5H87.1309V8.5ZM91.1309 8.5H92.1309V7.5H91.1309V8.5ZM92.838 8.70711C93.2285 8.31658 93.2285 7.68342 92.838 7.29289L86.474 0.928932C86.0835 0.538408 85.4503 0.538408 85.0598 0.928932C84.6693 1.31946 84.6693 1.95262 85.0598 2.34315L90.7166 8L85.0598 13.6569C84.6693 14.0474 84.6693 14.6805 85.0598 15.0711C85.4503 15.4616 86.0835 15.4616 86.474 15.0711L92.838 8.70711ZM0.130859 9H1.13086V7H0.130859V9ZM3.13086 9H5.13086V7H3.13086V9ZM7.13086 9H9.13086V7H7.13086V9ZM11.1309 9H13.1309V7H11.1309V9ZM15.1309 9H17.1309V7H15.1309V9ZM19.1309 9H21.1309V7H19.1309V9ZM23.1309 9H25.1309V7H23.1309V9ZM27.1309 9H29.1309V7H27.1309V9ZM31.1309 9H33.1309V7H31.1309V9ZM35.1309 9H37.1309V7H35.1309V9ZM39.1309 9H41.1309V7H39.1309V9ZM43.1309 9H45.1309V7H43.1309V9ZM47.1309 9H49.1309V7H47.1309V9ZM51.1309 9H53.1309V7H51.1309V9ZM55.1309 9H57.1309V7H55.1309V9ZM59.1309 9H61.1309V7H59.1309V9ZM63.1309 9H65.1309V7H63.1309V9ZM67.1309 9H69.1309V7H67.1309V9ZM71.1309 9H73.1309V7H71.1309V9ZM75.1309 9H77.1309V7H75.1309V9ZM79.1309 9H81.1309V7H79.1309V9ZM83.1309 9H85.1309V7H83.1309V9ZM87.1309 9H89.1309V7H87.1309V9ZM91.1309 9H92.1309V7H91.1309V9Z" fill="#EA4648"/>
</svg>
