<svg width="25" height="24" viewBox="0 0 25 24" fill="none" xmlns="http://www.w3.org/2000/svg">
<g id="Capa_1" clipPath="url(#clip0_422_14351)">
<g id="Group">
<path id="Vector" d="M21.6406 8.01562V19.5C21.6406 21.9555 19.643 23.9531 17.1875 23.9531H7.8125C5.35705 23.9531 3.35938 21.9555 3.35938 19.5V8.01562C3.35938 5.56017 5.35705 3.5625 7.8125 3.5625H17.1875C19.643 3.5625 21.6406 5.56017 21.6406 8.01562Z" fill="url(#paint0_linear_422_14351)"/>
<path id="Vector_2" d="M24.5 10.125V12.9375C24.5 13.8436 23.7655 14.5781 22.8594 14.5781H21.6406V8.48438H22.8594C23.7655 8.48438 24.5 9.21891 24.5 10.125ZM3.35938 8.48438H2.14062C1.23453 8.48438 0.5 9.21891 0.5 10.125V12.9375C0.5 13.8436 1.23453 14.5781 2.14062 14.5781H3.35938V8.48438ZM18.3594 11.0625C18.3594 9.89939 17.4131 8.95312 16.25 8.95312C15.0869 8.95312 14.1406 9.89939 14.1406 11.0625C14.1406 12.2256 15.0869 13.1719 16.25 13.1719C17.4131 13.1719 18.3594 12.2256 18.3594 11.0625ZM10.8594 11.0625C10.8594 9.89939 9.91311 8.95312 8.75 8.95312C7.58689 8.95312 6.64062 9.89939 6.64062 11.0625C6.64062 12.2256 7.58689 13.1719 8.75 13.1719C9.91311 13.1719 10.8594 12.2256 10.8594 11.0625ZM12.5 0.046875C10.5615 0.046875 8.98438 1.62398 8.98438 3.5625V4.96875C8.98438 5.35706 9.29919 5.67188 9.6875 5.67188H15.3125C15.7008 5.67188 16.0156 5.35706 16.0156 4.96875V3.5625C16.0156 1.62398 14.4385 0.046875 12.5 0.046875ZM11.1719 20.2031H13.8282V15.0469H11.1719V20.2031ZM9.76564 15.0469H9.6875C8.26363 15.0469 7.10938 16.2011 7.10938 17.625C7.10938 19.0489 8.26363 20.2031 9.6875 20.2031H9.76564V15.0469ZM15.3125 15.0469H15.2344V20.2031H15.3125C16.7364 20.2031 17.8906 19.0489 17.8906 17.625C17.8906 16.2011 16.7364 15.0469 15.3125 15.0469Z" fill="url(#paint1_linear_422_14351)"/>
</g>
</g>
<defs>
<linearGradient id="paint0_linear_422_14351" x1="12.5" y1="23.9531" x2="12.5" y2="3.5625" gradientUnits="userSpaceOnUse">
<stop stopColor="#5558FF"/>
<stop offset="1" stopColor="#00C0FF"/>
</linearGradient>
<linearGradient id="paint1_linear_422_14351" x1="12.5" y1="20.2031" x2="12.5" y2="0.046875" gradientUnits="userSpaceOnUse">
<stop stopColor="#ADDCFF"/>
<stop offset="0.5028" stopColor="#EAF6FF"/>
<stop offset="1" stopColor="#EAF6FF"/>
</linearGradient>
<clipPath id="clip0_422_14351">
<rect width="24" height="24" fill="white" transform="translate(0.5)"/>
</clipPath>
</defs>
</svg>
