<svg width="1920" height="1080" viewBox="0 0 1920 1080" fill="none" xmlns="http://www.w3.org/2000/svg">
<g clipPath="url(#clip0_3792_2274)">
<rect width="1920" height="1080" fill="white"/>
<circle cx="434.5" cy="520.5" r="436" stroke="#DDDDDD"/>
<path d="M1048.5 540C1048.5 894.843 761.066 1182.5 406.5 1182.5C51.9336 1182.5 -235.5 894.843 -235.5 540C-235.5 185.157 51.9336 -102.5 406.5 -102.5C761.066 -102.5 1048.5 185.157 1048.5 540Z" stroke="#DDDDDD" stroke-opacity="0.8"/>
<circle cx="520" cy="540" r="755.5" stroke="#DDDDDD" stroke-opacity="0.7"/>
<path d="M1500.5 540C1500.5 1019.66 1111.88 1408.5 632.5 1408.5C153.117 1408.5 -235.5 1019.66 -235.5 540C-235.5 60.3404 153.117 -328.5 632.5 -328.5C1111.88 -328.5 1500.5 60.3404 1500.5 540Z" stroke="#DDDDDD" stroke-opacity="0.6"/>
<circle cx="746" cy="540" r="981.5" stroke="#DDDDDD" stroke-opacity="0.5"/>
<circle cx="828.5" cy="540.5" r="1064" stroke="#DDDDDD" stroke-opacity="0.3"/>
<g filter="url(#filter0_d_3792_2274)">
<circle cx="188" cy="869" r="50" fill="white"/>
<circle cx="188" cy="869" r="41.6667" fill="#14B7B0"/>
<g clipPath="url(#clip1_3792_2274)">
<mask id="mask0_3792_2274" style="mask-type:luminance" maskUnits="userSpaceOnUse" x="165" y="846" width="46" height="46">
<path d="M165.778 846.778H210.222V891.222H165.778V846.778Z" fill="white"/>
</mask>
<g mask="url(#mask0_3792_2274)">
<path d="M167.079 889.92H208.919" stroke="white" strokeWidth="2.60417" strokeMiterlimit="10" strokeLinecap="round" strokeLinejoin="round"/>
<path d="M174.111 879.503H170.639C170.159 879.503 169.771 879.892 169.771 880.372V889.92H174.979V880.372C174.979 879.892 174.59 879.503 174.111 879.503Z" stroke="white" strokeWidth="2.60417" strokeMiterlimit="10" strokeLinecap="round" strokeLinejoin="round"/>
<path d="M184.527 876.378H181.055C180.576 876.378 180.187 876.767 180.187 877.247V889.92H185.395V877.247C185.395 876.767 185.007 876.378 184.527 876.378Z" stroke="white" strokeWidth="2.60417" strokeMiterlimit="10" strokeLinecap="round" strokeLinejoin="round"/>
<path d="M194.944 871.604H191.472C190.992 871.604 190.604 871.993 190.604 872.472V889.92H195.812V872.472C195.812 871.993 195.423 871.604 194.944 871.604Z" stroke="white" strokeWidth="2.60417" strokeMiterlimit="10" strokeLinecap="round" strokeLinejoin="round"/>
<path d="M205.361 862.924H201.889C201.409 862.924 201.021 863.312 201.021 863.792V889.92H206.229V863.792C206.229 863.312 205.84 862.924 205.361 862.924Z" stroke="white" strokeWidth="2.60417" strokeMiterlimit="10" strokeLinecap="round" strokeLinejoin="round"/>
<path d="M167.08 873.453C184.182 873.453 201.285 860.378 206.788 848.08" stroke="white" strokeWidth="2.60417" strokeMiterlimit="10" strokeLinecap="round" strokeLinejoin="round"/>
<path d="M198.83 850.212L206.787 848.079L208.92 856.037" stroke="white" strokeWidth="2.60417" strokeMiterlimit="10" strokeLinecap="round" strokeLinejoin="round"/>
</g>
</g>
</g>
<g filter="url(#filter1_d_3792_2274)">
<circle cx="179" cy="181" r="50" fill="white"/>
<circle cx="179" cy="181" r="41.6667" fill="#F8BF4B"/>
</g>
<g clipPath="url(#clip2_3792_2274)">
<path d="M178.667 180.146C181.756 180.146 184.429 179.039 186.615 176.853C188.799 174.668 189.907 171.995 189.907 168.906C189.907 165.818 188.8 163.145 186.614 160.959C184.429 158.774 181.755 157.667 178.667 157.667C175.579 157.667 172.905 158.774 170.72 160.959C168.535 163.144 167.427 165.818 167.427 168.906C167.427 171.995 168.535 174.668 170.72 176.854C172.906 179.038 175.58 180.146 178.667 180.146ZM172.654 162.893C174.331 161.216 176.298 160.401 178.667 160.401C181.037 160.401 183.004 161.216 184.681 162.893C186.357 164.57 187.173 166.537 187.173 168.906C187.173 171.276 186.357 173.243 184.681 174.92C183.004 176.596 181.037 177.411 178.667 177.411C176.298 177.411 174.332 176.596 172.654 174.92C170.977 173.243 170.162 171.276 170.162 168.906C170.162 166.537 170.977 164.57 172.654 162.893Z" fill="#EFF1F8"/>
<path d="M198.334 193.551C198.271 192.642 198.144 191.65 197.956 190.602C197.767 189.547 197.523 188.549 197.231 187.638C196.929 186.695 196.519 185.764 196.012 184.873C195.486 183.947 194.868 183.141 194.174 182.478C193.449 181.784 192.561 181.226 191.534 180.819C190.511 180.414 189.377 180.209 188.164 180.209C187.688 180.209 187.227 180.404 186.337 180.984C185.79 181.341 185.149 181.754 184.434 182.21C183.823 182.6 182.995 182.965 181.972 183.295C180.974 183.618 179.961 183.782 178.96 183.782C177.961 183.782 176.947 183.618 175.949 183.295C174.927 182.965 174.098 182.6 173.488 182.211C172.78 181.758 172.139 181.345 171.583 180.983C170.694 180.404 170.233 180.208 169.757 180.208C168.544 180.208 167.41 180.414 166.387 180.819C165.361 181.225 164.473 181.783 163.747 182.478C163.053 183.142 162.435 183.947 161.91 184.873C161.403 185.764 160.993 186.695 160.691 187.638C160.399 188.55 160.155 189.547 159.966 190.602C159.778 191.648 159.651 192.641 159.588 193.552C159.526 194.443 159.495 195.371 159.495 196.308C159.495 198.744 160.269 200.716 161.796 202.17C163.304 203.606 165.299 204.333 167.727 204.333H190.197C192.623 204.333 194.618 203.606 196.127 202.17C197.654 200.717 198.429 198.744 198.429 196.307C198.428 195.367 198.397 194.44 198.334 193.551ZM194.241 200.189C193.245 201.137 191.922 201.599 190.196 201.599H167.727C166.001 201.599 164.678 201.137 163.682 200.189C162.704 199.259 162.229 197.989 162.229 196.308C162.229 195.433 162.258 194.57 162.316 193.741C162.372 192.928 162.487 192.035 162.658 191.085C162.826 190.148 163.04 189.268 163.295 188.472C163.54 187.708 163.874 186.952 164.287 186.223C164.682 185.529 165.136 184.933 165.638 184.454C166.107 184.005 166.698 183.637 167.394 183.362C168.038 183.107 168.762 182.967 169.548 182.946C169.643 182.997 169.814 183.094 170.09 183.274C170.652 183.641 171.3 184.059 172.017 184.516C172.824 185.031 173.865 185.496 175.108 185.897C176.378 186.308 177.674 186.517 178.961 186.517C180.247 186.517 181.543 186.308 182.813 185.898C184.057 185.496 185.097 185.031 185.906 184.515C186.639 184.047 187.269 183.641 187.831 183.274C188.107 183.095 188.278 182.997 188.374 182.946C189.16 182.967 189.884 183.107 190.528 183.362C191.224 183.637 191.815 184.005 192.284 184.454C192.785 184.933 193.24 185.529 193.634 186.224C194.048 186.952 194.382 187.708 194.627 188.471C194.882 189.269 195.097 190.148 195.265 191.085C195.435 192.036 195.55 192.93 195.606 193.741V193.742C195.664 194.568 195.694 195.431 195.694 196.308C195.694 197.989 195.219 199.259 194.241 200.189Z" fill="#EFF1F8"/>
</g>
<g filter="url(#filter2_d_3792_2274)">
<circle cx="829" cy="326" r="50" fill="white"/>
<circle cx="829" cy="326" r="41.6667" fill="#6F80DA"/>
</g>
<g filter="url(#filter3_d_3792_2274)">
<circle cx="541" cy="91" r="50" fill="white"/>
<circle cx="541" cy="91" r="41.6667" fill="#35353D"/>
</g>
<path d="M523.222 75.4444C523.222 75.44 523.215 75.4022 523.3 75.2644C523.395 75.1089 523.589 74.8778 523.946 74.5955C524.68 74.0178 525.88 73.3978 527.56 72.84C530.898 71.7244 535.649 71 541 71C546.351 71 551.102 71.7267 554.44 72.8378C556.12 73.3978 557.32 74.0155 558.053 74.5933C558.413 74.8778 558.604 75.1089 558.698 75.2644C558.786 75.4044 558.778 75.4422 558.778 75.4444C558.778 75.4511 558.784 75.4889 558.7 75.6244C558.604 75.78 558.411 76.0111 558.053 76.2933C557.32 76.8711 556.12 77.4911 554.44 78.0489C551.102 79.1644 546.351 79.8889 541 79.8889C535.649 79.8889 530.898 79.1622 527.56 78.0511C525.88 77.4911 524.68 76.8733 523.946 76.2955C523.695 76.1101 523.477 75.8832 523.302 75.6244C523.215 75.4911 523.222 75.4511 523.222 75.4444ZM558.778 81.06V91C558.778 91.0022 558.778 91.0133 558.771 91.0333C558.753 91.085 558.73 91.1343 558.7 91.18C558.604 91.3355 558.411 91.5667 558.053 91.8489C557.32 92.4267 556.12 93.0467 554.44 93.6044C551.102 94.7178 546.351 95.4444 541 95.4444C535.649 95.4444 530.898 94.7178 527.56 93.6067C525.88 93.0467 524.68 92.4289 523.946 91.8511C523.695 91.6657 523.477 91.4387 523.302 91.18C523.272 91.1344 523.247 91.0851 523.229 91.0333C523.225 91.0226 523.223 91.0113 523.222 91V81.06C524.168 81.5345 525.149 81.9379 526.155 82.2667C530.055 83.5667 535.304 84.3333 541 84.3333C546.695 84.3333 551.944 83.5667 555.844 82.2667C556.851 81.9383 557.831 81.5349 558.778 81.06ZM558.778 96.6155V106.556L558.771 106.589C558.753 106.641 558.73 106.69 558.7 106.736C558.604 106.891 558.411 107.122 558.053 107.404C557.32 107.982 556.12 108.602 554.44 109.16C551.102 110.273 546.351 111 541 111C535.649 111 530.898 110.273 527.56 109.162C525.88 108.602 524.68 107.984 523.946 107.407C523.695 107.221 523.477 106.994 523.302 106.736C523.272 106.69 523.247 106.641 523.229 106.589L523.222 106.556V96.6155C524.168 97.0905 525.149 97.4939 526.155 97.8222C530.055 99.1222 535.304 99.8889 541 99.8889C546.695 99.8889 551.944 99.1222 555.844 97.8222C556.851 97.4939 557.831 97.0905 558.778 96.6155ZM518.778 106.556C518.778 108.449 519.931 109.898 521.195 110.896C522.486 111.913 524.218 112.731 526.155 113.378C530.055 114.678 535.304 115.444 541 115.444C546.695 115.444 551.944 114.678 555.844 113.378C557.784 112.733 559.513 111.911 560.804 110.896C562.071 109.898 563.222 108.449 563.222 106.556V75.4444C563.222 73.5511 562.069 72.1022 560.804 71.1044C559.513 70.0867 557.782 69.2689 555.844 68.6222C551.944 67.3222 546.695 66.5555 541 66.5555C535.304 66.5555 530.055 67.3222 526.155 68.6222C524.215 69.2667 522.486 70.0889 521.195 71.1044C519.929 72.1022 518.778 73.5511 518.778 75.4444V106.556Z" fill="#EFF1F8"/>
<g filter="url(#filter4_d_3792_2274)">
<circle cx="829" cy="703" r="50" fill="white"/>
<circle cx="829" cy="703" r="41.6667" fill="#F5894E"/>
</g>
<g clipPath="url(#clip3_3792_2274)">
<path d="M814.323 701.961C814.447 702.083 814.817 702.447 815.379 702.447H815.395C815.956 702.447 816.327 702.083 816.45 701.961L816.472 701.939C819.866 698.372 826.184 691.732 822.716 685.133L822.712 685.126C821.3 682.491 818.499 680.825 815.401 680.778H815.387H815.372C812.275 680.825 809.473 682.491 808.057 685.133C804.589 691.732 810.907 698.372 814.301 701.939L814.323 701.961ZM809.744 686.028C810.827 684.008 812.988 682.729 815.387 682.688C817.784 682.729 819.944 684.007 821.027 686.024C823.574 690.877 819.528 695.923 815.387 700.308C811.245 695.922 807.197 690.875 809.744 686.028Z" fill="white"/>
<path d="M820.014 689.204C820.014 688.289 819.743 687.394 819.235 686.633C818.726 685.872 818.003 685.279 817.158 684.929C816.312 684.579 815.382 684.487 814.484 684.666C813.587 684.844 812.762 685.285 812.115 685.932C811.468 686.579 811.027 687.404 810.849 688.301C810.67 689.199 810.762 690.129 811.112 690.975C811.462 691.82 812.055 692.543 812.816 693.052C813.577 693.56 814.472 693.831 815.387 693.831C816.614 693.83 817.79 693.342 818.658 692.474C819.525 691.607 820.013 690.431 820.014 689.204ZM812.669 689.204C812.669 688.666 812.829 688.141 813.127 687.694C813.426 687.247 813.851 686.899 814.347 686.693C814.844 686.487 815.39 686.434 815.917 686.538C816.445 686.643 816.929 686.902 817.309 687.282C817.689 687.662 817.948 688.147 818.053 688.674C818.157 689.201 818.104 689.747 817.898 690.244C817.692 690.741 817.344 691.165 816.897 691.464C816.45 691.762 815.925 691.922 815.387 691.922C814.667 691.921 813.976 691.634 813.466 691.125C812.957 690.615 812.67 689.924 812.669 689.204Z" fill="white"/>
<path d="M841.55 716.828C841.674 716.95 842.044 717.314 842.606 717.314H842.622C843.183 717.314 843.554 716.95 843.677 716.828L843.699 716.806C847.093 713.238 853.411 706.598 849.943 699.999L849.939 699.992C848.527 697.358 845.726 695.692 842.628 695.645H842.614H842.599C839.502 695.692 836.7 697.358 835.285 699.999C831.816 706.598 838.134 713.238 841.529 716.806L841.55 716.828ZM836.971 700.895C838.054 698.875 840.215 697.596 842.614 697.555C845.011 697.596 847.171 698.874 848.254 700.891C850.801 705.744 846.755 710.79 842.614 715.175C838.472 710.789 834.424 705.742 836.971 700.895Z" fill="white"/>
<path d="M847.241 704.072C847.241 703.156 846.97 702.262 846.461 701.501C845.953 700.74 845.23 700.147 844.384 699.796C843.539 699.446 842.609 699.355 841.711 699.533C840.813 699.712 839.989 700.152 839.342 700.8C838.694 701.447 838.254 702.271 838.075 703.169C837.897 704.067 837.988 704.997 838.339 705.842C838.689 706.688 839.282 707.411 840.043 707.919C840.804 708.428 841.699 708.699 842.614 708.699C843.841 708.698 845.017 708.21 845.884 707.342C846.752 706.475 847.24 705.298 847.241 704.072ZM839.896 704.072C839.896 703.534 840.055 703.009 840.354 702.562C840.653 702.115 841.077 701.766 841.574 701.561C842.07 701.355 842.617 701.301 843.144 701.406C843.671 701.511 844.155 701.77 844.535 702.15C844.916 702.53 845.174 703.014 845.279 703.541C845.384 704.069 845.33 704.615 845.125 705.112C844.919 705.608 844.571 706.033 844.124 706.331C843.677 706.63 843.151 706.789 842.614 706.789C841.893 706.788 841.202 706.502 840.693 705.992C840.183 705.483 839.897 704.792 839.896 704.072Z" fill="white"/>
<path d="M845.763 720.512C845.493 719.857 845.024 719.302 844.424 718.925C843.823 718.549 843.12 718.369 842.412 718.411C841.704 718.453 841.027 718.715 840.475 719.161C839.924 719.606 839.525 720.213 839.334 720.896H820.804C820.319 720.893 819.855 720.697 819.513 720.353C819.171 720.009 818.979 719.543 818.979 719.058C818.979 718.572 819.171 718.107 819.513 717.762C819.855 717.418 820.319 717.223 820.804 717.219H826.412C827.89 717.219 829.307 716.632 830.351 715.588C831.396 714.543 831.983 713.126 831.983 711.648C831.983 710.171 831.396 708.753 830.351 707.709C829.307 706.664 827.89 706.077 826.412 706.077H818.681C818.473 705.282 817.985 704.589 817.306 704.125C816.628 703.662 815.806 703.458 814.989 703.552C814.173 703.646 813.418 704.031 812.863 704.637C812.308 705.242 811.99 706.028 811.968 706.849C811.946 707.671 812.22 708.472 812.741 709.107C813.263 709.743 813.995 710.168 814.805 710.307C815.615 710.445 816.448 710.286 817.15 709.86C817.852 709.434 818.377 708.769 818.629 707.987H826.412C826.894 707.984 827.372 708.077 827.819 708.26C828.265 708.443 828.671 708.712 829.013 709.053C829.355 709.393 829.626 709.797 829.811 710.243C829.996 710.688 830.092 711.166 830.092 711.648C830.092 712.131 829.996 712.608 829.811 713.054C829.626 713.499 829.355 713.903 829.013 714.244C828.671 714.584 828.265 714.853 827.819 715.036C827.372 715.219 826.894 715.312 826.412 715.31H820.804C819.81 715.31 818.857 715.705 818.154 716.407C817.451 717.11 817.057 718.064 817.057 719.058C817.057 720.052 817.451 721.005 818.154 721.708C818.857 722.411 819.81 722.805 820.804 722.805H839.354C839.386 722.909 839.422 723.012 839.464 723.114C839.812 723.945 840.475 724.605 841.307 724.949C842.14 725.293 843.076 725.293 843.908 724.949C844.741 724.605 845.404 723.945 845.752 723.113C846.099 722.282 846.103 721.347 845.763 720.512V720.512ZM815.959 708.33C815.685 708.443 815.384 708.473 815.093 708.414C814.803 708.356 814.536 708.214 814.327 708.004C814.117 707.794 813.975 707.527 813.918 707.237C813.86 706.946 813.89 706.645 814.004 706.371C814.117 706.098 814.309 705.864 814.556 705.699C814.802 705.535 815.092 705.448 815.388 705.448C815.685 705.448 815.974 705.536 816.22 705.701C816.466 705.866 816.658 706.1 816.771 706.374C816.922 706.741 816.922 707.153 816.769 707.52C816.617 707.887 816.326 708.178 815.959 708.33ZM843.185 723.198C842.911 723.311 842.61 723.34 842.32 723.282C842.029 723.224 841.763 723.081 841.553 722.871C841.344 722.661 841.202 722.394 841.144 722.104C841.087 721.813 841.117 721.512 841.23 721.239C841.344 720.965 841.536 720.731 841.783 720.567C842.029 720.403 842.319 720.315 842.615 720.315C842.911 720.316 843.201 720.404 843.447 720.569C843.693 720.734 843.885 720.968 843.998 721.241C844.074 721.423 844.114 721.618 844.114 721.815C844.115 722.012 844.076 722.207 844 722.389C843.925 722.571 843.814 722.736 843.674 722.875C843.534 723.014 843.368 723.123 843.185 723.198Z" fill="white"/>
</g>
<g filter="url(#filter5_d_3792_2274)">
<circle cx="555" cy="937" r="50" fill="white"/>
<circle cx="555" cy="937" r="41.6667" fill="#449BD5"/>
</g>
<path d="M555 914.5C550.55 914.5 546.2 915.82 542.5 918.292C538.8 920.764 535.916 924.278 534.213 928.39C532.51 932.501 532.064 937.025 532.932 941.39C533.801 945.754 535.943 949.763 539.09 952.91C542.237 956.057 546.246 958.199 550.61 959.068C554.975 959.936 559.499 959.49 563.61 957.787C567.722 956.084 571.236 953.2 573.708 949.5C576.18 945.8 577.5 941.45 577.5 937C577.493 931.035 575.121 925.316 570.903 921.097C566.684 916.879 560.965 914.507 555 914.5ZM572.319 934.5H565.742C565.419 929.697 564.031 925.026 561.677 920.827C564.482 921.99 566.938 923.862 568.803 926.259C570.668 928.655 571.88 931.495 572.319 934.5ZM549.273 939.5H560.731C560.263 945.06 558.231 950.221 555.004 954.052C551.763 950.221 549.742 945.06 549.273 939.5ZM549.273 934.5C549.742 928.94 551.763 923.779 555 919.948C558.238 923.779 560.258 928.94 560.727 934.5H549.273ZM548.333 920.827C545.976 925.025 544.584 929.696 544.258 934.5H537.681C538.121 931.494 539.334 928.653 541.201 926.257C543.069 923.86 545.526 921.989 548.333 920.827ZM537.681 939.5H544.258C544.584 944.304 545.976 948.975 548.333 953.173C545.526 952.011 543.069 950.14 541.201 947.743C539.334 945.347 538.121 942.506 537.681 939.5ZM561.677 953.173C564.031 948.974 565.419 944.303 565.742 939.5H572.319C571.88 942.505 570.668 945.345 568.803 947.741C566.938 950.138 564.482 952.01 561.677 953.173Z" fill="#EFF1F8"/>
<path d="M828.374 326.127C830.574 326.127 832.479 325.338 834.036 323.78C835.593 322.224 836.382 320.319 836.382 318.118C836.382 315.918 835.593 314.013 834.036 312.456C832.479 310.9 830.574 310.11 828.374 310.11C826.173 310.11 824.268 310.9 822.711 312.456C821.155 314.013 820.365 315.918 820.365 318.118C820.365 320.319 821.155 322.224 822.711 323.781C824.269 325.337 826.174 326.127 828.374 326.127ZM824.089 313.834C825.284 312.639 826.685 312.059 828.374 312.059C830.062 312.059 831.463 312.639 832.658 313.834C833.853 315.029 834.434 316.43 834.434 318.118C834.434 319.807 833.853 321.208 832.658 322.403C831.463 323.598 830.062 324.178 828.374 324.178C826.686 324.178 825.284 323.597 824.089 322.403C822.895 321.208 822.314 319.807 822.314 318.118C822.314 316.43 822.895 315.029 824.089 313.834Z" fill="white"/>
<path d="M841.079 326.735C842.221 326.735 843.21 326.325 844.018 325.517C844.825 324.709 845.235 323.721 845.235 322.579C845.235 321.437 844.826 320.448 844.018 319.64C843.209 318.832 842.221 318.423 841.079 318.423C839.937 318.423 838.948 318.832 838.14 319.64C837.333 320.448 836.923 321.437 836.923 322.579C836.923 323.721 837.333 324.709 838.14 325.517C838.949 326.325 839.937 326.735 841.079 326.735ZM838.856 320.355C839.476 319.735 840.203 319.434 841.079 319.434C841.955 319.434 842.683 319.735 843.303 320.355C843.923 320.975 844.224 321.703 844.224 322.579C844.224 323.455 843.923 324.182 843.303 324.802C842.683 325.422 841.955 325.724 841.079 325.724C840.203 325.724 839.476 325.422 838.856 324.802C838.236 324.182 837.934 323.455 837.934 322.579C837.934 321.703 838.236 320.975 838.856 320.355Z" fill="white"/>
<path d="M816.252 326.735C815.11 326.735 814.121 326.325 813.313 325.517C812.505 324.709 812.095 323.721 812.095 322.579C812.095 321.437 812.505 320.448 813.313 319.64C814.121 318.832 815.11 318.423 816.252 318.423C817.394 318.423 818.382 318.832 819.19 319.64C819.998 320.448 820.408 321.437 820.408 322.579C820.408 323.721 819.998 324.709 819.19 325.517C818.382 326.325 817.393 326.735 816.252 326.735ZM818.475 320.355C817.855 319.735 817.128 319.434 816.252 319.434C815.375 319.434 814.648 319.735 814.028 320.355C813.408 320.975 813.107 321.703 813.107 322.579C813.107 323.455 813.408 324.182 814.028 324.802C814.648 325.422 815.375 325.724 816.252 325.724C817.128 325.724 817.855 325.422 818.475 324.802C819.095 324.182 819.397 323.455 819.397 322.579C819.397 321.703 819.095 320.975 818.475 320.355Z" fill="white"/>
<path d="M842.386 335.677C842.341 335.03 842.25 334.323 842.117 333.577C841.982 332.825 841.808 332.114 841.6 331.464C841.385 330.793 841.093 330.13 840.732 329.494C840.357 328.835 839.916 328.26 839.422 327.788C838.906 327.293 838.273 326.896 837.541 326.606C836.812 326.317 836.004 326.171 835.14 326.171C834.801 326.171 834.472 326.311 833.838 326.723C833.448 326.978 832.992 327.272 832.483 327.597C832.047 327.875 831.457 328.135 830.728 328.37C830.017 328.6 829.295 328.717 828.582 328.717C827.87 328.717 827.148 328.6 826.437 328.37C825.709 328.135 825.118 327.875 824.683 327.598C824.179 327.275 823.722 326.981 823.326 326.723C822.693 326.31 822.365 326.171 822.025 326.171C821.161 326.171 820.353 326.317 819.624 326.606C818.893 326.896 818.26 327.293 817.743 327.788C817.249 328.261 816.808 328.835 816.434 329.494C816.073 330.13 815.781 330.792 815.566 331.464C815.358 332.114 815.184 332.825 815.049 333.577C814.915 334.322 814.825 335.029 814.78 335.678C814.736 336.313 814.713 336.974 814.713 337.642C814.713 339.377 815.265 340.782 816.353 341.819C817.428 342.841 818.849 343.36 820.579 343.36H836.588C838.317 343.36 839.739 342.841 840.813 341.819C841.902 340.783 842.453 339.377 842.453 337.641C842.453 336.971 842.431 336.311 842.386 335.677ZM839.47 340.407C838.76 341.083 837.817 341.411 836.588 341.411H820.579C819.349 341.411 818.406 341.083 817.697 340.407C817 339.744 816.662 338.839 816.662 337.642C816.662 337.019 816.682 336.403 816.723 335.813C816.764 335.233 816.845 334.597 816.967 333.921C817.087 333.253 817.24 332.626 817.421 332.059C817.596 331.514 817.833 330.976 818.128 330.457C818.409 329.962 818.733 329.538 819.09 329.196C819.424 328.876 819.845 328.614 820.342 328.418C820.8 328.236 821.316 328.137 821.876 328.122C821.944 328.158 822.066 328.227 822.263 328.355C822.663 328.616 823.125 328.914 823.635 329.24C824.211 329.607 824.952 329.938 825.837 330.224C826.743 330.517 827.666 330.666 828.583 330.666C829.499 330.666 830.423 330.517 831.328 330.224C832.214 329.938 832.955 329.607 833.531 329.24C834.053 328.906 834.502 328.617 834.903 328.355C835.099 328.227 835.221 328.158 835.289 328.122C835.849 328.137 836.365 328.236 836.824 328.418C837.32 328.614 837.741 328.876 838.075 329.196C838.432 329.537 838.756 329.962 839.037 330.457C839.333 330.976 839.57 331.515 839.744 332.058C839.926 332.627 840.079 333.253 840.199 333.92C840.32 334.598 840.402 335.235 840.443 335.813V335.814C840.484 336.402 840.505 337.017 840.505 337.642C840.505 338.84 840.166 339.744 839.47 340.407Z" fill="white"/>
<path d="M850.615 332.704C850.723 333.305 850.796 333.875 850.832 334.397C850.868 334.907 850.886 335.44 850.886 335.98C850.886 337.379 850.442 338.512 849.564 339.347C848.698 340.171 847.552 340.589 846.159 340.589H841.079V339.204L846.159 339.018C847.149 339.018 847.909 338.754 848.482 338.209C849.043 337.675 849.316 336.946 849.316 335.98C849.316 335.477 849.299 334.981 849.265 334.506C849.233 334.04 849.167 333.527 849.069 332.981C848.973 332.443 848.849 331.938 848.703 331.48C848.563 331.042 848.371 330.607 848.133 330.189C847.906 329.79 847.645 329.448 847.357 329.173C847.088 328.915 846.749 328.704 846.349 328.546C845.979 328.399 845.563 328.319 845.112 328.307C845.057 328.336 844.959 328.392 844.8 328.495C844.477 328.706 844.116 328.939 843.695 329.208C843.23 329.504 842.633 329.771 841.919 330.002C841.189 330.238 840.445 330.357 839.706 330.357L839.706 328.787C840.281 328.787 840.862 328.693 841.436 328.507C842.023 328.318 842.499 328.108 842.85 327.884C843.26 327.622 843.628 327.385 843.942 327.18C844.453 326.847 844.718 326.735 844.992 326.735C845.688 326.735 846.339 326.853 846.927 327.085C847.517 327.319 848.027 327.639 848.443 328.038C848.841 328.419 849.196 328.882 849.498 329.413C849.79 329.925 850.025 330.46 850.198 331.001C850.366 331.525 850.506 332.098 850.615 332.704Z" fill="white"/>
<path d="M806.716 332.704C806.608 333.305 806.535 333.875 806.499 334.397C806.463 334.907 806.445 335.44 806.444 335.98C806.444 337.379 806.889 338.512 807.766 339.347C808.632 340.171 809.778 340.589 811.172 340.589H816.251V339.204L811.172 339.018C810.181 339.018 809.421 338.754 808.849 338.209C808.288 337.675 808.015 336.946 808.015 335.98C808.015 335.477 808.032 334.981 808.065 334.506C808.097 334.04 808.164 333.527 808.261 332.981C808.358 332.443 808.481 331.938 808.628 331.48C808.768 331.042 808.96 330.607 809.198 330.189C809.424 329.79 809.685 329.448 809.973 329.173C810.242 328.915 810.582 328.704 810.982 328.546C811.352 328.399 811.767 328.319 812.219 328.307C812.274 328.336 812.372 328.392 812.53 328.495C812.853 328.706 813.215 328.939 813.636 329.208C814.1 329.504 814.697 329.771 815.412 330.002C816.141 330.238 816.886 330.357 817.624 330.357L817.625 328.787C817.05 328.787 816.468 328.693 815.895 328.507C815.308 328.318 814.832 328.108 814.481 327.884C814.07 327.622 813.703 327.385 813.388 327.18C812.877 326.847 812.613 326.735 812.339 326.735C811.642 326.735 810.991 326.853 810.404 327.085C809.814 327.319 809.304 327.639 808.887 328.038C808.489 328.419 808.134 328.882 807.832 329.413C807.541 329.925 807.306 330.46 807.132 331.001C806.965 331.525 806.824 332.098 806.716 332.704Z" fill="white"/>
</g>
<defs>
<filter id="filter0_d_3792_2274" x="118" y="799" width="140" height="140" filterUnits="userSpaceOnUse" color-interpolation-filters="sRGB">
<feFlood flood-opacity="0" result="BackgroundImageFix"/>
<feColorMatrix in="SourceAlpha" type="matrix" values="0 0 0 0 0 0 0 0 0 0 0 0 0 0 0 0 0 0 127 0" result="hardAlpha"/>
<feOffset/>
<feGaussianBlur stdDeviation="10"/>
<feComposite in2="hardAlpha" operator="out"/>
<feColorMatrix type="matrix" values="0 0 0 0 0 0 0 0 0 0 0 0 0 0 0 0 0 0 0.15 0"/>
<feBlend mode="normal" in2="BackgroundImageFix" result="effect1_dropShadow_3792_2274"/>
<feBlend mode="normal" in="SourceGraphic" in2="effect1_dropShadow_3792_2274" result="shape"/>
</filter>
<filter id="filter1_d_3792_2274" x="109" y="111" width="140" height="140" filterUnits="userSpaceOnUse" color-interpolation-filters="sRGB">
<feFlood flood-opacity="0" result="BackgroundImageFix"/>
<feColorMatrix in="SourceAlpha" type="matrix" values="0 0 0 0 0 0 0 0 0 0 0 0 0 0 0 0 0 0 127 0" result="hardAlpha"/>
<feOffset/>
<feGaussianBlur stdDeviation="10"/>
<feComposite in2="hardAlpha" operator="out"/>
<feColorMatrix type="matrix" values="0 0 0 0 0 0 0 0 0 0 0 0 0 0 0 0 0 0 0.1 0"/>
<feBlend mode="normal" in2="BackgroundImageFix" result="effect1_dropShadow_3792_2274"/>
<feBlend mode="normal" in="SourceGraphic" in2="effect1_dropShadow_3792_2274" result="shape"/>
</filter>
<filter id="filter2_d_3792_2274" x="759" y="256" width="140" height="140" filterUnits="userSpaceOnUse" color-interpolation-filters="sRGB">
<feFlood flood-opacity="0" result="BackgroundImageFix"/>
<feColorMatrix in="SourceAlpha" type="matrix" values="0 0 0 0 0 0 0 0 0 0 0 0 0 0 0 0 0 0 127 0" result="hardAlpha"/>
<feOffset/>
<feGaussianBlur stdDeviation="10"/>
<feComposite in2="hardAlpha" operator="out"/>
<feColorMatrix type="matrix" values="0 0 0 0 0 0 0 0 0 0 0 0 0 0 0 0 0 0 0.15 0"/>
<feBlend mode="normal" in2="BackgroundImageFix" result="effect1_dropShadow_3792_2274"/>
<feBlend mode="normal" in="SourceGraphic" in2="effect1_dropShadow_3792_2274" result="shape"/>
</filter>
<filter id="filter3_d_3792_2274" x="471" y="21" width="140" height="140" filterUnits="userSpaceOnUse" color-interpolation-filters="sRGB">
<feFlood flood-opacity="0" result="BackgroundImageFix"/>
<feColorMatrix in="SourceAlpha" type="matrix" values="0 0 0 0 0 0 0 0 0 0 0 0 0 0 0 0 0 0 127 0" result="hardAlpha"/>
<feOffset/>
<feGaussianBlur stdDeviation="10"/>
<feComposite in2="hardAlpha" operator="out"/>
<feColorMatrix type="matrix" values="0 0 0 0 0 0 0 0 0 0 0 0 0 0 0 0 0 0 0.15 0"/>
<feBlend mode="normal" in2="BackgroundImageFix" result="effect1_dropShadow_3792_2274"/>
<feBlend mode="normal" in="SourceGraphic" in2="effect1_dropShadow_3792_2274" result="shape"/>
</filter>
<filter id="filter4_d_3792_2274" x="759" y="633" width="140" height="140" filterUnits="userSpaceOnUse" color-interpolation-filters="sRGB">
<feFlood flood-opacity="0" result="BackgroundImageFix"/>
<feColorMatrix in="SourceAlpha" type="matrix" values="0 0 0 0 0 0 0 0 0 0 0 0 0 0 0 0 0 0 127 0" result="hardAlpha"/>
<feOffset/>
<feGaussianBlur stdDeviation="10"/>
<feComposite in2="hardAlpha" operator="out"/>
<feColorMatrix type="matrix" values="0 0 0 0 0 0 0 0 0 0 0 0 0 0 0 0 0 0 0.15 0"/>
<feBlend mode="normal" in2="BackgroundImageFix" result="effect1_dropShadow_3792_2274"/>
<feBlend mode="normal" in="SourceGraphic" in2="effect1_dropShadow_3792_2274" result="shape"/>
</filter>
<filter id="filter5_d_3792_2274" x="485" y="867" width="140" height="140" filterUnits="userSpaceOnUse" color-interpolation-filters="sRGB">
<feFlood flood-opacity="0" result="BackgroundImageFix"/>
<feColorMatrix in="SourceAlpha" type="matrix" values="0 0 0 0 0 0 0 0 0 0 0 0 0 0 0 0 0 0 127 0" result="hardAlpha"/>
<feOffset/>
<feGaussianBlur stdDeviation="10"/>
<feComposite in2="hardAlpha" operator="out"/>
<feColorMatrix type="matrix" values="0 0 0 0 0 0 0 0 0 0 0 0 0 0 0 0 0 0 0.15 0"/>
<feBlend mode="normal" in2="BackgroundImageFix" result="effect1_dropShadow_3792_2274"/>
<feBlend mode="normal" in="SourceGraphic" in2="effect1_dropShadow_3792_2274" result="shape"/>
</filter>
<clipPath id="clip0_3792_2274">
<rect width="1920" height="1080" fill="white"/>
</clipPath>
<clipPath id="clip1_3792_2274">
<rect width="44.4444" height="44.4444" fill="white" transform="translate(165.778 846.778)"/>
</clipPath>
<clipPath id="clip2_3792_2274">
<rect width="46.6666" height="46.6667" fill="white" transform="translate(155.667 157.667)"/>
</clipPath>
<clipPath id="clip3_3792_2274">
<rect width="44.4444" height="44.4444" fill="white" transform="translate(806.778 680.778)"/>
</clipPath>
</defs>
</svg>
