<svg width="28" height="28" viewBox="0 0 28 28" fill="none" xmlns="http://www.w3.org/2000/svg">
<g id="Layer_2_1_">
<g id="lineal_outline">
<path id="Vector" d="M20.9425 23.8621H7.05692C6.72305 23.8621 6.45207 23.5911 6.45207 23.2573V14.1984C6.45207 9.63784 9.55617 6.45209 14 6.45209C18.4438 6.45209 21.5473 9.63784 21.5473 14.1984V23.2573C21.5473 23.5911 21.2764 23.8621 20.9425 23.8621ZM7.66177 22.6524H20.3376V14.1984C20.3376 10.3504 17.7319 7.66179 14 7.66179C10.2681 7.66179 7.66177 10.3504 7.66177 14.1984V22.6524Z" fill="#EA4648"/>
<path id="Vector_2" d="M18.3283 15.1571C18.3283 15.3239 18.4639 15.4595 18.6307 15.4595C18.7976 15.4595 18.9332 15.3239 18.9332 15.1571C18.9332 12.5206 17.5796 10.2451 15.8326 9.66221L18.3283 15.1571ZM18.3283 15.1571C18.3283 14.0247 18.0508 12.9349 17.5829 12.0607M18.3283 15.1571L17.5829 12.0607M17.5829 12.0607C17.1175 11.1913 16.4465 10.5055 15.6416 10.2376L17.5829 12.0607ZM15.6415 10.2376C15.482 10.1843 15.3966 10.013 15.4494 9.85441C15.5026 9.69488 15.6739 9.60937 15.8325 9.66218L15.6415 10.2376Z" fill="#EA4648" stroke="#EA4648" strokeWidth="0.604851"/>
<path id="Vector_3" d="M25.5968 26.7285H25.2944C25.2944 26.8953 25.1588 27.0309 24.9919 27.0309H3.00683C2.83998 27.0309 2.7044 26.8953 2.7044 26.7285H2.40198M25.5968 26.7285L25.2944 26.7288C25.2921 24.6456 23.6037 22.9572 21.5205 22.9548H6.47823C4.39503 22.9572 2.70664 24.6456 2.7044 26.7288L2.40198 26.7285M25.5968 26.7285C25.5944 24.4785 23.7708 22.6548 21.5207 22.6524L2.40198 26.7285M25.5968 26.7285C25.5968 27.0624 25.3258 27.3333 24.9919 27.3333H3.00683C2.67295 27.3333 2.40198 27.0624 2.40198 26.7285M3.38085 26.0595L3.30132 26.4261H3.6764H24.3224H24.6975L24.6179 26.0595C24.3017 24.6019 23.0126 23.5617 21.5211 23.5597H21.5207L6.47807 23.5597L6.47766 23.5597C4.98615 23.5617 3.6971 24.6019 3.38085 26.0595Z" fill="#EA4648" stroke="#EA4648" strokeWidth="0.604851"/>
<path id="Vector_4" d="M4.74276 14.6049H1.27152C0.937645 14.6049 0.666672 14.3339 0.666672 14.0001C0.666672 13.6662 0.937645 13.3952 1.27152 13.3952H4.74276C5.07664 13.3952 5.34761 13.6662 5.34761 14.0001C5.34761 14.3339 5.07664 14.6049 4.74276 14.6049Z" fill="#EA4648"/>
<path id="Vector_5" d="M7.00854 7.90918C6.84826 7.90918 6.69402 7.84567 6.58091 7.73196L4.26675 5.41719C4.03449 5.17707 4.04114 4.7942 4.28187 4.56193C4.51656 4.33572 4.88794 4.33572 5.12201 4.56193L7.43617 6.8767C7.67206 7.11319 7.67206 7.49607 7.43617 7.73196C7.32246 7.84567 7.16883 7.90918 7.00854 7.90918Z" fill="#EA4648"/>
<path id="Vector_6" d="M14 5.34763C13.6661 5.34763 13.3951 5.07666 13.3951 4.74278V1.27154C13.3951 0.93766 13.6661 0.666687 14 0.666687C14.3339 0.666687 14.6048 0.93766 14.6048 1.27154V4.74278C14.6048 5.07666 14.3339 5.34763 14 5.34763Z" fill="#EA4648"/>
<path id="Vector_7" d="M21.1221 7.77793C20.7882 7.77793 20.5173 7.50696 20.5173 7.17308C20.5173 7.0128 20.5808 6.85916 20.6945 6.74545L23.0087 4.43129C23.2445 4.1948 23.628 4.1948 23.8645 4.43069C24.101 4.66658 24.101 5.05006 23.8645 5.28655L21.5498 7.60071C21.4366 7.71442 21.2824 7.77793 21.1221 7.77793Z" fill="#EA4648"/>
<path id="Vector_8" d="M26.7285 14.6049H23.2572C22.9234 14.6049 22.6524 14.3339 22.6524 14.0001C22.6524 13.6662 22.9234 13.3952 23.2572 13.3952H26.7285C27.0624 13.3952 27.3333 13.6662 27.3333 14.0001C27.3333 14.3339 27.0624 14.6049 26.7285 14.6049Z" fill="#EA4648"/>
</g>
</g>
</svg>
