<svg width="50" height="53" viewBox="0 0 50 53" fill="none" xmlns="http://www.w3.org/2000/svg">
<path d="M25 0L23.6192 0.06625L31.59 8.48L34.4142 5.52083C41.2134 8.98792 46.1088 15.9883 46.8619 24.2917H50C48.9331 10.6883 38.159 0 25 0ZM25 8.83333C20.9623 8.83333 17.6778 12.3004 17.6778 16.5625C17.6778 20.8246 20.9623 24.2917 25 24.2917C29.0377 24.2917 32.3222 20.8246 32.3222 16.5625C32.3222 12.3004 29.0377 8.83333 25 8.83333ZM0 28.7083C1.06695 42.3117 11.841 53 25 53L26.3808 52.9337L18.41 44.52L15.5858 47.4792C8.78661 44.0342 3.89121 37.0117 3.13808 28.7083H0ZM25 28.7083C16.9038 28.7083 10.3556 32.1754 10.3556 36.4375V39.75H39.6444V36.4375C39.6444 32.1754 33.0962 28.7083 25 28.7083Z" fill="#204496"/>
</svg>
