<svg width="60" height="56" viewBox="0 0 60 56" fill="none" xmlns="http://www.w3.org/2000/svg">
<path d="M30 0L21.42 31.5214C20.4 34.5909 21.12 38.1031 23.58 40.5528C27.12 44.006 32.82 44.006 36.33 40.5528C38.7 38.2212 39.48 34.8861 38.67 31.9641M37.8 5.81434L39.66 12.6912C48.12 16.351 54 24.6446 54 34.2958C54 40.8185 51.33 46.7214 46.98 50.9714H46.95C45.78 52.1225 45.78 53.9819 46.95 55.133C48.12 56.284 50.04 56.284 51.21 55.1625C56.64 49.8204 60 42.4418 60 34.2958C60 20.6601 50.58 9.20851 37.8 5.81434ZM22.2 5.84386C9.45 9.20851 0 20.7191 0 34.2958C0 42.4418 3.36 49.8204 8.79 55.1625C9.96 56.284 11.85 56.284 13.02 55.133C14.19 53.9819 14.19 52.1225 13.02 50.9714C8.67 46.6918 6 40.8185 6 34.2958C6 24.4084 11.82 16.1739 20.37 12.6027" fill="#204496"/>
</svg>
