<svg width="53" height="53" viewBox="0 0 53 53" fill="none" xmlns="http://www.w3.org/2000/svg">
<path d="M14.575 0C10.7095 0 7.00226 1.84177 4.26892 5.12014C1.53558 8.39852 0 12.8449 0 17.4813C0 19.0705 0.2385 20.6597 0.583 22.2489H11.395L14.7605 11.5376C15.5555 8.9949 18.6825 8.74063 19.6895 11.5376L25.175 28.6057L26.7385 24.0924C27.083 23.0435 28.0105 22.2489 29.15 22.2489H52.417C52.7615 20.6597 53 19.0705 53 17.4813C53 12.8449 51.4644 8.39852 48.7311 5.12014C45.9977 1.84177 42.2905 0 38.425 0C33.496 0 29.15 2.95592 26.5 7.43748C23.85 2.95592 19.504 0 14.575 0ZM2.65 27.0165C1.94718 27.0165 1.27314 27.3514 0.776167 27.9474C0.279196 28.5435 0 29.3519 0 30.1949C0 31.0379 0.279196 31.8463 0.776167 32.4424C1.27314 33.0384 1.94718 33.3733 2.65 33.3733H9.116L23.85 50.8546C26.5 53.7151 26.5 53.7151 29.15 50.8546L43.884 33.3733H50.35C51.0528 33.3733 51.7269 33.0384 52.2238 32.4424C52.7208 31.8463 53 31.0379 53 30.1949C53 29.3519 52.7208 28.5435 52.2238 27.9474C51.7269 27.3514 51.0528 27.0165 50.35 27.0165H30.21L27.7455 34.3268C26.6855 37.537 23.638 37.0921 22.6575 34.4222L17.225 17.4813L14.681 24.887C14.2835 26.0948 13.3825 27.0165 12.19 27.0165H2.65Z" fill="#204496"/>
</svg>
