<svg width="49" height="53" viewBox="0 0 49 53" fill="none" xmlns="http://www.w3.org/2000/svg">
<path d="M14.2918 4.41675C17.926 4.41675 19.7431 9.18675 17.191 11.9692C14.6185 14.7297 10.2085 12.7642 10.2085 8.83342C10.2085 7.66204 10.6387 6.53865 11.4045 5.71036C12.1703 4.88207 13.2089 4.41675 14.2918 4.41675ZM11.2293 15.4584H17.3543C18.4373 15.4584 19.4759 15.9237 20.2417 16.752C21.0075 17.5803 21.4377 18.7037 21.4377 19.8751V32.0209H18.3752V48.5834H10.2085V32.0209H7.146V19.8751C7.146 18.7037 7.5762 17.5803 8.34198 16.752C9.10775 15.9237 10.1464 15.4584 11.2293 15.4584ZM42.8752 17.6667H30.6252V22.0834H42.8752M42.8752 24.2917H36.7502V28.7084H42.8752M42.8752 4.41675H30.6252V8.83342H42.8752M42.8752 11.0417H36.7502V15.4584H42.8752M42.8752 30.9167H30.6252V35.3334H42.8752M42.8752 44.1668H30.6252V48.5834H42.8752M42.8752 37.5418H36.7502V41.9584H42.8752" fill="#204496"/>
</svg>
