<svg width="80" height="53" viewBox="0 0 80 53" fill="none" xmlns="http://www.w3.org/2000/svg">
<path d="M6.66667 0H73.3333C76.8333 0 80 2.79722 80 5.88889V47.1111C80 50.2028 76.8333 53 73.3333 53H6.66667C3.16667 53 0 50.2028 0 47.1111V5.88889C0 2.79722 3.16667 0 6.66667 0ZM46.6667 8.83333V11.7778H73.3333V8.83333H46.6667ZM46.6667 14.7222V17.6667H71.6667H73.3333V14.7222H46.6667ZM46.6667 20.6111V23.5556H70V20.6111H46.6667ZM26.6667 32.1239C20 32.1239 6.66667 35.3333 6.66667 41.2222V44.1667H46.6667V41.2222C46.6667 35.3333 33.3333 32.1239 26.6667 32.1239ZM26.6667 8.83333C24.0145 8.83333 21.471 9.76399 19.5956 11.4206C17.7202 13.0771 16.6667 15.3239 16.6667 17.6667C16.6667 20.0094 17.7202 22.2562 19.5956 23.9128C21.471 25.5693 24.0145 26.5 26.6667 26.5C29.3188 26.5 31.8624 25.5693 33.7377 23.9128C35.6131 22.2562 36.6667 20.0094 36.6667 17.6667C36.6667 15.3239 35.6131 13.0771 33.7377 11.4206C31.8624 9.76399 29.3188 8.83333 26.6667 8.83333Z" fill="#204496"/>
</svg>
