<svg width="49" height="53" viewBox="0 0 49 53" fill="none" xmlns="http://www.w3.org/2000/svg">
<path d="M9.85444 22.9372C13.7744 31.27 20.09 38.1011 27.7939 42.3411L33.7828 35.8633C34.545 35.0389 35.6067 34.8033 36.5594 35.1272C39.6083 36.2167 42.875 36.8056 46.2778 36.8056C46.9998 36.8056 47.6922 37.1158 48.2027 37.668C48.7132 38.2202 49 38.9691 49 39.75V50.0556C49 50.8365 48.7132 51.5854 48.2027 52.1376C47.6922 52.6898 46.9998 53 46.2778 53C34.0041 53 22.2332 47.7263 13.5544 38.3391C4.87568 28.9518 0 16.22 0 2.94444C0 2.16353 0.286805 1.4146 0.79732 0.862408C1.30784 0.310217 2.00024 0 2.72222 0H12.25C12.972 0 13.6644 0.310217 14.1749 0.862408C14.6854 1.4146 14.9722 2.16353 14.9722 2.94444C14.9722 6.625 15.5167 10.1583 16.5239 13.4561C16.8233 14.4867 16.6056 15.635 15.8433 16.4594L9.85444 22.9372Z" fill="#204496"/>
</svg>
