<svg width="54" height="53" viewBox="0 0 54 53" fill="none" xmlns="http://www.w3.org/2000/svg">
<path d="M5.4 10.6H0V47.7C0 49.1056 0.568927 50.4537 1.58162 51.4477C2.59432 52.4416 3.96783 53 5.4 53H43.2V47.7H5.4V10.6ZM48.6 0C50.0322 0 51.4057 0.558391 52.4184 1.55233C53.4311 2.54628 54 3.89435 54 5.3V37.1C54 38.5056 53.4311 39.8537 52.4184 40.8477C51.4057 41.8416 50.0322 42.4 48.6 42.4H16.2C14.7678 42.4 13.3943 41.8416 12.3816 40.8477C11.3689 39.8537 10.8 38.5056 10.8 37.1V5.3C10.8 3.89435 11.3689 2.54628 12.3816 1.55233C13.3943 0.558391 14.7678 0 16.2 0H48.6ZM40.5 13.25C40.5 11.1415 39.6466 9.11942 38.1276 7.6285C36.6085 6.13759 34.5483 5.3 32.4 5.3C30.2517 5.3 28.1915 6.13759 26.6724 7.6285C25.1534 9.11942 24.3 11.1415 24.3 13.25C24.3 15.3585 25.1534 17.3806 26.6724 18.8715C28.1915 20.3624 30.2517 21.2 32.4 21.2C34.5483 21.2 36.6085 20.3624 38.1276 18.8715C39.6466 17.3806 40.5 15.3585 40.5 13.25ZM16.2 34.45V37.1H48.6V34.45C48.6 29.15 37.8 26.235 32.4 26.235C27 26.235 16.2 29.15 16.2 34.45Z" fill="#204496"/>
</svg>
