<svg width="46" height="53" viewBox="0 0 46 53" fill="none" xmlns="http://www.w3.org/2000/svg">
<path d="M23 9.63636C20.447 9.63636 18.4 11.7805 18.4 14.4545C18.4 17.1286 20.447 19.2727 23 19.2727C25.553 19.2727 27.6 17.1286 27.6 14.4545C27.6 11.7805 25.553 9.63636 23 9.63636ZM46 0V12.0455H41.4V7.22727H4.6V12.0455H0V0H4.6V4.81818H41.4V0H46ZM29.9 24.7173V53H25.3V40.9545H20.7V53H16.1V24.7173C11.339 22.0914 8.05 16.8636 8.05 10.8409V9.63636H12.65V10.8409C12.65 16.8636 17.25 21.6818 23 21.6818C28.75 21.6818 33.35 16.8636 33.35 10.8409V9.63636H37.95V10.8409C37.95 16.8636 34.661 22.0914 29.9 24.7173Z" fill="#204496"/>
</svg>
